<?xml version="1.0" standalone="no"?>
<!DOCTYPE svg PUBLIC "-//W3C//DTD SVG 20010904//EN"
 "http://www.w3.org/TR/2001/REC-SVG-20010904/DTD/svg10.dtd">
<svg version="1.0" xmlns="http://www.w3.org/2000/svg"
 width="200.000000pt" height="200.000000pt" viewBox="0 0 200.000000 200.000000"
 preserveAspectRatio="xMidYMid meet">

<g transform="translate(0.000000,200.000000) scale(0.100000,-0.100000)"
fill="#000000" stroke="none">
<path d="M820 1921 c-291 -134 -541 -262 -577 -295 -70 -63 -86 -106 -168
-471 -84 -373 -86 -393 -42 -488 31 -68 429 -571 480 -608 68 -50 121 -59 324
-59 l183 0 0 314 c0 262 -2 315 -14 319 -10 4 -22 -10 -37 -41 -31 -67 -68
-180 -74 -226 -3 -22 -10 -45 -15 -50 -6 -6 -10 -17 -10 -25 0 -22 -41 -102
-49 -96 -7 4 -6 48 3 120 2 17 11 51 19 76 31 92 48 279 25 279 -7 0 -22 7
-32 15 -19 14 -19 15 3 23 21 8 21 9 -16 35 -37 26 -38 27 -41 7 -3 -19 -5
-18 -29 9 l-25 29 -57 -15 c-81 -20 -192 -63 -220 -85 -13 -10 -33 -18 -45
-18 -12 0 -26 -4 -32 -9 -15 -14 -94 -24 -94 -12 0 6 3 11 8 11 4 0 20 11 36
25 16 14 33 25 38 25 6 0 21 9 35 20 14 11 33 20 42 20 40 0 256 134 245 152
-3 5 -7 20 -9 34 -2 18 2 24 11 20 11 -4 14 5 14 36 0 34 -2 39 -15 28 -12
-10 -14 -7 -10 19 2 17 6 34 9 39 9 15 -147 121 -254 171 -67 31 -130 78 -130
97 0 19 77 -7 200 -68 63 -31 141 -64 173 -73 l59 -17 28 27 c27 26 28 26 32
7 3 -20 5 -19 38 8 35 28 35 29 12 37 -22 9 -22 9 12 23 36 14 36 14 36 76 0
73 -19 214 -31 229 -12 16 -20 173 -9 180 8 5 42 -55 45 -80 1 -5 6 -26 12
-45 6 -19 11 -48 12 -65 2 -46 62 -226 83 -247 16 -16 18 -38 18 -230 l1 -213
69 -47 c77 -53 90 -78 90 -176 l0 -52 218 2 217 3 3 275 2 276 -28 27 -28 27
-27 -26 c-25 -23 -27 -30 -27 -114 l0 -90 -40 0 -39 0 6 48 c9 75 -19 127
-108 200 l-73 60 -29 -24 c-34 -29 -39 -29 -54 -5 -7 11 -44 45 -83 76 l-70
56 0 279 0 280 -47 0 c-36 0 -74 -12 -153 -49z m109 -56 c-20 -7 -54 -24 -75
-37 -21 -14 -137 -78 -257 -143 -231 -125 -277 -161 -297 -235 -25 -87 -130
-589 -130 -615 1 -60 31 -108 219 -359 233 -310 219 -300 441 -317 80 -6 146
-12 148 -14 5 -4 -182 -18 -259 -18 -55 -1 -77 4 -133 32 -54 26 -79 48 -139
118 -323 384 -357 433 -372 533 -7 52 2 103 82 435 59 248 82 306 146 360 57
49 577 275 632 274 l30 0 -36 -14z"/>
</g>
</svg>
