<?xml version="1.0" encoding="UTF-8"?>
<svg id="Layer_2" data-name="Layer 2" xmlns="http://www.w3.org/2000/svg" viewBox="0 0 407.69 237.43">
  <defs>
    <style>
      .cls-1, .cls-2, .cls-3, .cls-4, .cls-5, .cls-6, .cls-7, .cls-8, .cls-9, .cls-10, .cls-11, .cls-12, .cls-13, .cls-14, .cls-15, .cls-16, .cls-17 {
        fill: none;
      }

      .cls-2 {
        stroke-width: .04px;
      }

      .cls-2, .cls-3, .cls-4, .cls-5, .cls-6, .cls-7, .cls-8, .cls-9, .cls-10, .cls-11, .cls-12, .cls-13, .cls-14, .cls-15, .cls-16, .cls-17 {
        stroke: #231f20;
        stroke-miterlimit: 10;
      }

      .cls-3 {
        stroke-width: .04px;
      }

      .cls-4 {
        stroke-width: .17px;
      }

      .cls-5 {
        stroke-width: .41px;
      }

      .cls-6 {
        stroke-width: .41px;
      }

      .cls-18 {
        fill: #69af31;
      }

      .cls-19 {
        fill: #f4efe4;
      }

      .cls-20 {
        fill: #8c7173;
      }

      .cls-21 {
        fill: #b9b2b8;
      }

      .cls-22 {
        fill: #c4bfb9;
      }

      .cls-23 {
        fill: #e1cfc9;
      }

      .cls-24 {
        fill: #355818;
      }

      .cls-25 {
        fill: #998575;
      }

      .cls-26 {
        fill: #87c059;
      }

      .cls-27 {
        fill: #474143;
      }

      .cls-28 {
        fill: #5f5250;
      }

      .cls-29 {
        fill: #534741;
      }

      .cls-30 {
        fill: #7a7b7d;
      }

      .cls-31 {
        fill: #7b525a;
      }

      .cls-7 {
        stroke-width: .33px;
      }

      .cls-8 {
        stroke-width: .33px;
      }

      .cls-9 {
        stroke-width: .05px;
      }

      .cls-10 {
        stroke-width: .05px;
      }

      .cls-11 {
        stroke-width: .23px;
      }

      .cls-12 {
        stroke-width: .2px;
      }

      .cls-13 {
        stroke-width: .05px;
      }

      .cls-14 {
        stroke-width: .05px;
      }

      .cls-15 {
        stroke-width: .15px;
      }

      .cls-16 {
        stroke-width: .04px;
      }

      .cls-17 {
        stroke-width: .04px;
      }
    </style>
  </defs>
  <g id="Layer_2-2" data-name="Layer 2">
    <g>
      <g>
        <polyline class="cls-6" points=".11 110.57 .13 110.56 .14 110.55"/>
        <path class="cls-22" d="M382.18,110.64c-63.43,36.78-126.87,73.56-190.31,110.33C127.96,184.16,64.05,147.36,.14,110.56L190.52,0c63.88,36.88,127.77,73.76,191.66,110.64Z"/>
        <path class="cls-19" d="M382.28,117.18l-190.39,110.3-.02-6.51c63.44-36.78,126.88-73.56,190.31-110.33l.1,6.55Z"/>
        <path class="cls-30" d="M191.89,227.48C127.98,190.67,64.06,153.87,.15,117.06v-6.5c63.9,36.8,127.81,73.61,191.72,110.42l.02,6.51Z"/>
        <path class="cls-5" d="M382.28,110.7s-.07-.04-.1-.06"/>
      </g>
      <g>
        <polyline class="cls-14" points="21.83 179.11 21.83 179.11 21.83 179.11"/>
        <path class="cls-22" d="M72.61,179.12c-8.43,4.89-16.86,9.78-25.3,14.67-8.49-4.89-16.99-9.78-25.48-14.68l25.31-14.69c8.49,4.9,16.98,9.8,25.47,14.71Z"/>
        <path class="cls-19" d="M72.62,179.99l-25.31,14.66v-.87c8.43-4.89,16.86-9.78,25.29-14.67v.87Z"/>
        <path class="cls-30" d="M47.32,194.65c-8.5-4.89-16.99-9.78-25.49-14.68v-.86c8.49,4.89,16.99,9.78,25.48,14.68v.87Z"/>
        <path class="cls-13" d="M72.62,179.13s0,0-.01,0"/>
      </g>
      <g>
        <polyline class="cls-14" points="356.88 139.89 356.88 139.89 356.88 139.89"/>
        <path class="cls-22" d="M407.67,139.9c-8.43,4.89-16.86,9.78-25.3,14.67-8.49-4.89-16.99-9.78-25.48-14.68l25.31-14.69c8.49,4.9,16.98,9.8,25.47,14.71Z"/>
        <path class="cls-19" d="M407.68,140.77l-25.31,14.66v-.87c8.43-4.89,16.86-9.78,25.29-14.67v.87Z"/>
        <path class="cls-30" d="M382.37,155.43c-8.5-4.89-16.99-9.78-25.49-14.68v-.86c8.49,4.89,16.99,9.78,25.48,14.68v.87Z"/>
        <path class="cls-13" d="M407.68,139.91s0,0-.01,0"/>
      </g>
      <g>
        <polyline class="cls-3" points="349.58 164.13 349.58 164.13 349.58 164.13"/>
        <path class="cls-22" d="M384.75,164.14c-5.84,3.39-11.68,6.77-17.52,10.16-5.88-3.39-11.77-6.78-17.65-10.17l17.53-10.18c5.88,3.4,11.76,6.79,17.65,10.19Z"/>
        <path class="cls-19" d="M384.76,164.74l-17.53,10.15v-.6c5.84-3.39,11.68-6.77,17.52-10.16v.6Z"/>
        <path class="cls-30" d="M367.23,174.9c-5.88-3.39-11.77-6.78-17.65-10.17v-.6c5.88,3.39,11.77,6.78,17.65,10.17v.6Z"/>
        <path class="cls-2" d="M384.76,164.14s0,0,0,0"/>
      </g>
      <g>
        <polyline class="cls-9" points="75.79 223.94 75.8 223.93 75.8 223.93"/>
        <path class="cls-22" d="M119.88,223.94c-7.32,4.24-14.64,8.49-21.96,12.73-7.37-4.25-14.75-8.49-22.12-12.74l21.97-12.76c7.37,4.25,14.74,8.51,22.11,12.77Z"/>
        <path class="cls-19" d="M119.89,224.7l-21.97,12.73v-.75c7.32-4.24,14.64-8.49,21.96-12.73v.76Z"/>
        <path class="cls-30" d="M97.92,237.43c-7.37-4.25-14.75-8.49-22.12-12.74v-.75c7.37,4.25,14.75,8.49,22.12,12.74v.75Z"/>
        <path class="cls-10" d="M119.89,223.95s0,0-.01,0"/>
      </g>
      <g>
        <polyline class="cls-17" points="70.27 191.14 70.27 191.14 70.27 191.14"/>
        <path class="cls-22" d="M110.4,191.15c-6.66,3.86-13.33,7.73-19.99,11.59-6.71-3.87-13.43-7.73-20.14-11.6l20-11.61c6.71,3.87,13.42,7.75,20.13,11.62Z"/>
        <path class="cls-19" d="M110.41,191.84l-20,11.58v-.68c6.66-3.86,13.32-7.73,19.99-11.59v.69Z"/>
        <path class="cls-30" d="M90.41,203.42c-6.71-3.87-13.43-7.73-20.14-11.6v-.68c6.71,3.87,13.42,7.73,20.14,11.6v.68Z"/>
        <path class="cls-16" d="M110.41,191.16s0,0-.01,0"/>
      </g>
      <path class="cls-7" d="M191.73,199.07s0,0,0,0"/>
      <polyline class="cls-8" points="356.62 209.82 356.63 209.81 356.64 209.81"/>
      <g>
        <g>
          <path class="cls-20" d="M298.05,103.01c-35.31,20.47-70.62,40.94-105.93,61.41-35.57-20.49-71.15-40.98-106.72-61.46l105.97-61.54c35.56,20.53,71.12,41.06,106.68,61.58Z"/>
          <path class="cls-31" d="M298.1,106.65l-105.98,61.39v-3.62c35.3-20.47,70.61-40.94,105.92-61.41l.05,3.64Z"/>
          <path class="cls-27" d="M192.13,168.05c-35.58-20.49-71.15-40.98-106.73-61.47v-3.62c35.57,20.49,71.14,40.97,106.72,61.46v3.62Z"/>
          <path class="cls-11" d="M192.12,164.42s0,0,0,0"/>
        </g>
        <g>
          <path class="cls-20" d="M286.37,101.4c-31.3,18.15-62.61,36.3-93.91,54.45-31.54-18.16-63.07-36.33-94.61-54.49l93.95-54.56c31.52,18.2,63.05,36.4,94.58,54.6Z"/>
          <path class="cls-31" d="M286.41,104.63l-93.95,54.43v-3.21c31.29-18.15,62.6-36.3,93.9-54.45l.05,3.23Z"/>
          <path class="cls-27" d="M192.46,159.05c-31.54-18.16-63.08-36.33-94.62-54.49v-3.21c31.53,18.16,63.07,36.32,94.61,54.49v3.21Z"/>
          <path class="cls-12" d="M192.45,155.84s0,0,0,0"/>
        </g>
        <g>
          <path class="cls-20" d="M269.66,101.79c-25.64,14.87-51.29,29.73-76.93,44.6-25.84-14.88-51.67-29.76-77.51-44.64l76.96-44.69c25.82,14.91,51.65,29.82,77.48,44.72Z"/>
          <path class="cls-31" d="M269.7,104.43l-76.96,44.59v-2.63c25.64-14.87,51.28-29.73,76.92-44.6l.04,2.65Z"/>
          <path class="cls-27" d="M192.74,149.02c-25.84-14.88-51.67-29.76-77.51-44.64v-2.63c25.83,14.88,51.67,29.76,77.5,44.64v2.63Z"/>
          <path class="cls-4" d="M192.73,146.39s0,0,0,0"/>
        </g>
        <g>
          <path class="cls-20" d="M261.97,97.95c-23,13.33-46,26.67-69,40-23.17-13.34-46.34-26.69-69.51-40.03l69.03-40.08c23.16,13.37,46.32,26.74,69.49,40.11Z"/>
          <path class="cls-31" d="M262,100.33l-69.03,39.99v-2.36c22.99-13.33,45.99-26.67,68.99-40l.04,2.37Z"/>
          <path class="cls-27" d="M192.97,140.32c-23.17-13.34-46.35-26.69-69.52-40.04v-2.36c23.17,13.34,46.34,26.69,69.51,40.03v2.36Z"/>
          <path class="cls-15" d="M192.96,137.96s0,0,0,0"/>
        </g>
      </g>
      <g>
        <path class="cls-28" d="M192.72,68.87v63.9l-55.8-32.74,.38-56.06v-7.63l6.55,3.73v7.63l.22,.12,41.81,23.85v-6.74s0,0,.01,0l6.73,4.01s.07-.04,.1-.06Z"/>
        <polygon class="cls-21" points="228.35 111.66 218.63 117.41 218.63 105.82 228.35 111.66"/>
        <polygon class="cls-28" points="228.35 95.56 228.35 111.66 218.63 105.82 218.63 101.15 228.35 95.56"/>
        <line class="cls-1" x1="213.45" y1="7.19" x2="213.35" y2="7.42"/>
        <polygon class="cls-21" points="213.35 7.42 192.72 54.42 192.68 54.5 172.31 7.25 213.2 7.25 213.35 7.42"/>
        <line class="cls-1" x1="172.31" y1="7.25" x2="172.28" y2="7.19"/>
        <path class="cls-28" d="M192.72,54.42v6.57s-.03-.01-.04-.02c-2.26,1.32-4.52,2.63-6.79,3.95l-1.17-.7-33.33-19.86v-.43s.07-13.11,.07-13.11l20.58-23.58h.28l20.37,47.25,.03-.08Z"/>
        <path class="cls-23" d="M234.04,44.54c-11.53,6.78-23.05,13.57-34.57,20.35-2.25-1.3-4.5-2.6-6.76-3.89v-6.57L213.35,7.42l20.43,22.89,.11,5.81,.12,6.79v.11s.03,1.52,.03,1.52Z"/>
        <path class="cls-23" d="M150.62,36.11v7.35c-2.18,1.45-4.37,2.9-6.55,4.35l-.22-.12v-7.63l6.77-3.95Z"/>
        <polygon class="cls-21" points="150.62 36.11 143.85 40.06 137.29 36.33 143.85 31.96 150.62 36.11"/>
        <line class="cls-1" x1="240.96" y1="31.94" x2="240.81" y2="32.03"/>
        <path class="cls-23" d="M248,35.94V100.02l-19.64,11.63v-16.1l-9.73,5.6v16.26l-25.91,15.35v-63.9c2.25-1.33,4.5-2.65,6.76-3.98,.02,.01,.04,.02,.07,.04v6.61l41.52-24.48,.12-.07-.06-.03-.05-.03v-6.81h0s.02-.01,.02-.02c2.31-1.39,4.61-2.77,6.92-4.16Z"/>
        <polygon class="cls-21" points="234.1 42.96 240.8 46.78 234.1 42.97 234.1 42.96"/>
        <polygon class="cls-21" points="241.05 46.92 241.06 40.12 241.06 46.93 241.05 46.92"/>
        <path class="cls-21" d="M248,35.94c-2.3,1.39-4.61,2.78-6.92,4.16,0,0-.02,0-.02,.01l-.81-.47-6.13-3.6,6.01,3.53-6.03-3.33v-.2l6.7-4.02,7.19,3.91Z"/>
        <polyline class="cls-1" points="234.1 36.04 240.77 32.01 240.81 32.03"/>
        <polygon class="cls-1" points="241.05 40.12 241.05 40.12 240.13 39.58 234.12 36.04 240.24 39.64 241.05 40.12"/>
        <path class="cls-21" d="M199.47,64.89c-2.25,1.32-4.5,2.65-6.76,3.98-.03,.02-.07,.04-.1,.06l-6.73-4.01c2.26-1.32,4.52-2.63,6.79-3.95,.01,0,.03,.02,.04,.02,2.25,1.3,4.5,2.6,6.76,3.89Z"/>
        <path class="cls-21" d="M185.88,64.93v6.74l-41.81-23.85c2.18-1.45,4.37-2.9,6.55-4.35l.77,.47v.43s33.33,19.86,33.33,19.86l1.16,.71Z"/>
        <line class="cls-1" x1="184.72" y1="64.22" x2="151.39" y2="43.93"/>
        <path class="cls-21" d="M241.17,46.99l-.12,.07-41.52,24.48v-6.61s-.04-.03-.07-.04c11.53-6.78,23.05-13.57,34.57-20.35l-.03-1.52,.04-.03,.04-.03,6.7,3.81,.25,.15h0v.07l.05-.03,.06,.03Z"/>
        <line class="cls-1" x1="234.02" y1="43.02" x2="199.47" y2="64.89"/>
        <polyline class="cls-1" points="233.22 42.46 234.01 42.91 234.06 42.94 234.1 42.96"/>
        <polyline class="cls-1" points="241.05 46.92 241.06 46.93 241.11 46.96 241.17 46.99"/>
        <line class="cls-1" x1="234.1" y1="36.04" x2="234.04" y2="45.87"/>
        <polygon class="cls-28" points="241.06 40.12 241.05 46.92 240.8 46.78 234.1 42.96 234.1 36.24 240.13 39.58 241.05 40.12 241.05 40.12 241.06 40.12"/>
        <polyline class="cls-1" points="245.21 42.39 241.08 40.1 240.24 39.64 240.13 39.58"/>
        <polyline class="cls-1" points="234.1 36.24 233.89 36.13 233.35 35.83"/>
        <line class="cls-1" x1="218.63" y1="105.82" x2="217.15" y2="104.94"/>
        <g>
          <path class="cls-28" d="M213.36,56.54c-.81,.47-1.62,.93-2.43,1.4v-6.86c.78-.48,1.56-.97,2.34-1.45l.09,6.91Z"/>
          <path class="cls-28" d="M218.05,53.93c-.81,.47-1.62,.93-2.43,1.4v-6.86c.78-.48,1.56-.97,2.34-1.45l.09,6.91Z"/>
          <path class="cls-28" d="M222.73,51.32c-.81,.47-1.62,.93-2.43,1.4v-6.86c.78-.48,1.56-.97,2.34-1.45l.09,6.91Z"/>
        </g>
        <g>
          <path class="cls-23" d="M173.43,57.47c.8,.49,1.6,.97,2.4,1.46l.15-6.86c-.77-.5-1.54-1-2.31-1.5l-.25,6.91Z"/>
          <path class="cls-23" d="M168.8,54.75c.8,.49,1.6,.97,2.4,1.46l.15-6.86c-.77-.5-1.54-1-2.31-1.5l-.25,6.91Z"/>
          <path class="cls-23" d="M164.17,52.04c.8,.49,1.6,.97,2.4,1.46l.15-6.86c-.77-.5-1.54-1-2.31-1.5l-.25,6.91Z"/>
        </g>
      </g>
      <g>
        <path class="cls-18" d="M51.95,21.47c-6.88,4.15-13.77,8.29-20.65,12.44,6.88,3.94,13.75,7.88,20.63,11.82,6.95-3.89,13.91-7.77,20.86-11.66-6.95-4.2-13.89-8.4-20.84-12.6Z"/>
        <path class="cls-29" d="M51.81,65.11c-.96-1.03-1.92-2.06-2.87-3.09-.05,12.74-.11,25.48-.16,38.22l3.11,1.55c-.02-12.23-.04-24.45-.07-36.68Z"/>
        <path class="cls-25" d="M54.71,65.26c-.97-.31-1.93-.62-2.9-.93,.02,12.49,.04,24.97,.06,37.46,.94-.48,1.89-.96,2.83-1.44v-35.09Z"/>
        <path class="cls-24" d="M51.79,69.25c-6.83-4.07-13.66-8.15-20.49-12.22v-23.12c6.88,3.94,13.75,7.88,20.63,11.82-.04,7.84-.09,15.68-.13,23.52Z"/>
        <path class="cls-26" d="M72.56,56.8c-6.92,4.15-13.84,8.3-20.77,12.45,.04-7.84,.09-15.68,.13-23.52,6.95-3.89,13.91-7.77,20.86-11.66-.08,7.58-.15,15.15-.23,22.73Z"/>
      </g>
      <g>
        <path class="cls-18" d="M32.45,46.24c-5.39,3.25-10.79,6.5-16.18,9.74,5.39,3.09,10.77,6.18,16.16,9.26,5.45-3.04,10.9-6.09,16.35-9.13-5.44-3.29-10.88-6.58-16.32-9.87Z"/>
        <path class="cls-29" d="M32.34,80.43c-.75-.81-1.5-1.61-2.25-2.42-.04,9.98-.09,19.96-.13,29.94l2.43,1.22c-.02-9.58-.03-19.16-.05-28.74Z"/>
        <path class="cls-25" d="M34.61,80.55c-.76-.24-1.51-.49-2.27-.73,.02,9.78,.03,19.57,.05,29.35,.74-.38,1.48-.75,2.22-1.13v-27.49Z"/>
        <path class="cls-24" d="M32.32,83.68c-5.35-3.19-10.7-6.38-16.06-9.57v-18.12c5.39,3.09,10.77,6.18,16.16,9.26-.03,6.14-.07,12.28-.1,18.42Z"/>
        <path class="cls-26" d="M48.59,73.92c-5.42,3.25-10.85,6.5-16.27,9.75,.03-6.14,.07-12.28,.1-18.42,5.45-3.04,10.9-6.09,16.35-9.13-.06,5.94-.12,11.87-.18,17.81Z"/>
      </g>
      <g>
        <path class="cls-18" d="M60.04,53.08c-5.39,3.25-10.79,6.5-16.18,9.74,5.39,3.09,10.77,6.18,16.16,9.26,5.45-3.04,10.9-6.09,16.35-9.13-5.44-3.29-10.88-6.58-16.32-9.87Z"/>
        <path class="cls-29" d="M59.93,87.27c-.75-.81-1.5-1.61-2.25-2.42-.04,9.98-.09,19.96-.13,29.94l2.43,1.22c-.02-9.58-.03-19.16-.05-28.74Z"/>
        <path class="cls-25" d="M62.2,87.39c-.76-.24-1.51-.49-2.27-.73,.02,9.78,.03,19.57,.05,29.35,.74-.38,1.48-.75,2.22-1.13v-27.49Z"/>
        <path class="cls-24" d="M59.91,90.51c-5.35-3.19-10.7-6.38-16.06-9.57v-18.12c5.39,3.09,10.77,6.18,16.16,9.26-.03,6.14-.07,12.28-.1,18.42Z"/>
        <path class="cls-26" d="M76.18,80.76c-5.42,3.25-10.85,6.5-16.27,9.75,.03-6.14,.07-12.28,.1-18.42,5.45-3.04,10.9-6.09,16.35-9.13-.06,5.94-.12,11.87-.18,17.81Z"/>
      </g>
      <g>
        <path class="cls-18" d="M336.39,39.81c-5.6,3.37-11.2,6.74-16.8,10.12,5.59,3.21,11.18,6.41,16.78,9.62,5.66-3.16,11.31-6.32,16.97-9.48-5.65-3.42-11.3-6.83-16.95-10.25Z"/>
        <path class="cls-29" d="M336.28,75.31c-.78-.84-1.56-1.68-2.34-2.51-.04,10.36-.09,20.73-.13,31.09l2.53,1.26c-.02-9.95-.04-19.89-.05-29.84Z"/>
        <path class="cls-25" d="M338.64,75.43c-.79-.25-1.57-.51-2.36-.76,.02,10.16,.03,20.31,.05,30.47,.77-.39,1.54-.78,2.3-1.17v-28.54Z"/>
        <path class="cls-24" d="M336.26,78.67c-5.56-3.31-11.11-6.63-16.67-9.94v-18.81c5.59,3.21,11.18,6.41,16.78,9.62-.04,6.38-.07,12.75-.11,19.13Z"/>
        <path class="cls-26" d="M353.15,68.55c-5.63,3.37-11.26,6.75-16.89,10.12,.04-6.38,.07-12.75,.11-19.13,5.66-3.16,11.31-6.32,16.97-9.48-.06,6.16-.12,12.33-.19,18.49Z"/>
      </g>
      <g>
        <path class="cls-18" d="M354.31,61.28c-4.28,2.57-8.55,5.15-12.83,7.72,4.27,2.45,8.54,4.89,12.81,7.34,4.32-2.41,8.64-4.83,12.96-7.24-4.31-2.61-8.63-5.22-12.94-7.83Z"/>
        <path class="cls-29" d="M354.22,88.38c-.6-.64-1.19-1.28-1.79-1.92-.03,7.91-.07,15.82-.1,23.73l1.93,.96c-.01-7.59-.03-15.19-.04-22.78Z"/>
        <path class="cls-25" d="M356.02,88.48c-.6-.19-1.2-.39-1.8-.58,.01,7.75,.03,15.51,.04,23.26,.59-.3,1.17-.59,1.76-.89v-21.79Z"/>
        <path class="cls-24" d="M354.21,90.95c-4.24-2.53-8.48-5.06-12.73-7.59v-14.36c4.27,2.45,8.54,4.89,12.81,7.34-.03,4.87-.05,9.74-.08,14.6Z"/>
        <path class="cls-26" d="M367.1,83.22c-4.3,2.58-8.6,5.15-12.9,7.73,.03-4.87,.05-9.74,.08-14.6,4.32-2.41,8.64-4.83,12.96-7.24-.05,4.7-.09,9.41-.14,14.11Z"/>
      </g>
      <g>
        <path class="cls-18" d="M334.69,74.67c-3.73,2.25-7.46,4.49-11.18,6.74,3.72,2.13,7.45,4.27,11.17,6.4,3.77-2.1,7.53-4.21,11.3-6.31-3.76-2.27-7.52-4.55-11.28-6.82Z"/>
        <path class="cls-29" d="M334.62,98.3c-.52-.56-1.04-1.12-1.56-1.67-.03,6.9-.06,13.8-.09,20.7l1.68,.84c-.01-6.62-.02-13.24-.04-19.86Z"/>
        <path class="cls-25" d="M336.19,98.39c-.52-.17-1.05-.34-1.57-.5,.01,6.76,.02,13.52,.03,20.28,.51-.26,1.02-.52,1.53-.78v-19Z"/>
        <path class="cls-24" d="M334.6,100.55c-3.7-2.21-7.4-4.41-11.1-6.62v-12.52c3.72,2.13,7.45,4.27,11.17,6.4-.02,4.24-.05,8.49-.07,12.73Z"/>
        <path class="cls-26" d="M345.85,93.81c-3.75,2.25-7.5,4.49-11.24,6.74,.02-4.24,.05-8.49,.07-12.73,3.77-2.1,7.53-4.21,11.3-6.31-.04,4.1-.08,8.21-.12,12.31Z"/>
      </g>
    </g>
  </g>
</svg>