<?xml version="1.0" encoding="UTF-8"?>
<svg id="Layer_2" data-name="Layer 2" xmlns="http://www.w3.org/2000/svg" viewBox="0 0 259.82 222.46">
  <defs>
    <style>
      .cls-1 {
        fill: #f4efe4;
      }

      .cls-2 {
        fill: #99564a;
      }

      .cls-3 {
        fill: #b9b2b8;
      }

      .cls-4 {
        fill: #cc8d71;
      }

      .cls-5 {
        fill: #c4bfb9;
      }

      .cls-6 {
        fill: #e1cfc9;
      }

      .cls-7 {
        fill: #a46a57;
      }

      .cls-8 {
        fill: #583c38;
      }

      .cls-9 {
        fill: #5f5250;
      }

      .cls-10 {
        fill: #7a7b7d;
      }

      .cls-11 {
        stroke-width: .18px;
      }

      .cls-11, .cls-12, .cls-13, .cls-14, .cls-15, .cls-16 {
        fill: none;
        stroke: #231f20;
        stroke-miterlimit: 10;
      }

      .cls-12 {
        stroke-width: .18px;
      }

      .cls-13 {
        stroke-width: .15px;
      }

      .cls-14 {
        stroke-width: .15px;
      }

      .cls-15 {
        stroke-width: .17px;
      }

      .cls-16 {
        stroke-width: .17px;
      }
    </style>
  </defs>
  <g id="Layer_2-2" data-name="Layer 2">
    <g>
      <g>
        <g>
          <polyline class="cls-12" points=".05 122.51 .06 122.51 .06 122.51"/>
          <path class="cls-5" d="M173.19,122.54c-28.75,16.18-57.49,32.36-86.24,48.54C57.98,154.89,29.02,138.7,.06,122.51l86.28-48.64c28.95,16.22,57.9,32.45,86.85,48.68Z"/>
          <path class="cls-1" d="M173.23,125.42l-86.28,48.53v-2.86c28.74-16.18,57.49-32.36,86.23-48.54l.04,2.88Z"/>
          <path class="cls-10" d="M86.96,173.95C57.99,157.76,29.03,141.56,.07,125.37v-2.86c28.96,16.19,57.92,32.39,86.88,48.58v2.86Z"/>
          <path class="cls-11" d="M173.23,122.57s-.03-.02-.04-.03"/>
        </g>
        <g>
          <polyline class="cls-12" points="86.59 171.02 86.59 171.02 86.6 171.02"/>
          <path class="cls-5" d="M259.73,171.05c-28.75,16.18-57.49,32.36-86.24,48.54-28.96-16.19-57.92-32.39-86.89-48.58l86.28-48.64c28.95,16.22,57.9,32.45,86.85,48.68Z"/>
          <path class="cls-1" d="M259.77,173.93l-86.28,48.53v-2.86c28.74-16.18,57.49-32.36,86.23-48.54l.04,2.88Z"/>
          <path class="cls-10" d="M173.49,222.46c-28.96-16.19-57.93-32.39-86.89-48.58v-2.86c28.96,16.19,57.92,32.39,86.88,48.58v2.86Z"/>
          <path class="cls-11" d="M259.77,171.08s-.03-.02-.04-.03"/>
        </g>
      </g>
      <g>
        <g>
          <polyline class="cls-14" points="5.5 120.58 5.51 120.58 5.51 120.58"/>
          <path class="cls-5" d="M148.84,120.1c-23.75,13.46-47.5,26.92-71.26,40.39-24.02-13.3-48.05-26.61-72.07-39.91l71.28-40.47c24.01,13.33,48.03,26.66,72.05,39.99Z"/>
          <path class="cls-1" d="M148.88,122.48l-71.28,40.37-.02-2.37c23.75-13.46,47.5-26.92,71.26-40.39l.05,2.38Z"/>
          <path class="cls-10" d="M77.6,162.85c-24.03-13.3-48.05-26.61-72.08-39.91v-2.36c24.01,13.3,48.04,26.6,72.06,39.91l.02,2.37Z"/>
          <path class="cls-13" d="M148.88,120.12s-.02-.01-.04-.02"/>
        </g>
        <g>
          <polyline class="cls-14" points="77.29 160.43 77.29 160.43 77.3 160.43"/>
          <path class="cls-5" d="M220.62,159.95c-23.75,13.46-47.5,26.92-71.26,40.39-24.02-13.3-48.05-26.61-72.07-39.91l71.28-40.47c24.01,13.33,48.03,26.66,72.05,39.99Z"/>
          <path class="cls-1" d="M220.67,162.33l-71.28,40.37-.02-2.37c23.75-13.46,47.5-26.92,71.26-40.39l.05,2.38Z"/>
          <path class="cls-10" d="M149.38,202.7c-24.03-13.3-48.05-26.61-72.08-39.91v-2.36c24.01,13.3,48.04,26.6,72.06,39.91l.02,2.37Z"/>
          <path class="cls-13" d="M220.66,159.97s-.02-.01-.04-.02"/>
        </g>
      </g>
      <g>
        <g>
          <polyline class="cls-16" points="13.37 124.67 13.37 124.67 13.38 124.67"/>
          <path class="cls-5" d="M173.39,124.7c-26.57,14.94-53.14,29.87-79.71,44.81-26.77-14.95-53.54-29.89-80.31-44.84l79.74-44.9c26.76,14.98,53.52,29.95,80.27,44.93Z"/>
          <path class="cls-1" d="M173.44,127.36l-79.74,44.79v-2.64c26.56-14.94,53.13-29.87,79.7-44.81l.04,2.66Z"/>
          <path class="cls-10" d="M93.69,172.15c-26.77-14.95-53.54-29.89-80.31-44.84v-2.64c26.77,14.95,53.53,29.89,80.3,44.84v2.64Z"/>
          <path class="cls-15" d="M173.44,124.72s-.03-.02-.04-.02"/>
        </g>
        <g>
          <polyline class="cls-16" points="93.35 169.45 93.36 169.44 93.36 169.44"/>
          <path class="cls-5" d="M253.38,169.47c-26.57,14.94-53.14,29.87-79.71,44.81-26.77-14.95-53.54-29.89-80.31-44.84l79.74-44.9c26.76,14.98,53.52,29.95,80.27,44.93Z"/>
          <path class="cls-1" d="M253.42,172.13l-79.74,44.79v-2.64c26.56-14.94,53.13-29.87,79.7-44.81l.04,2.66Z"/>
          <path class="cls-10" d="M173.68,216.92c-26.77-14.95-53.54-29.89-80.31-44.84v-2.64c26.77,14.95,53.53,29.89,80.3,44.84v2.64Z"/>
          <path class="cls-15" d="M253.42,169.5s-.03-.02-.04-.02"/>
        </g>
      </g>
      <g>
        <g>
          <polyline class="cls-14" points="18.55 122.9 18.56 122.89 18.56 122.89"/>
          <path class="cls-5" d="M161.89,122.92c-23.8,13.38-47.6,26.76-71.4,40.13-23.98-13.39-47.95-26.78-71.93-40.16l71.43-40.21c23.97,13.41,47.93,26.83,71.9,40.24Z"/>
          <path class="cls-1" d="M161.93,125.3l-71.43,40.12v-2.37c23.79-13.38,47.59-26.76,71.39-40.13l.04,2.38Z"/>
          <path class="cls-10" d="M90.5,165.42c-23.98-13.39-47.96-26.78-71.94-40.17v-2.36c23.97,13.39,47.95,26.77,71.93,40.16v2.37Z"/>
          <path class="cls-13" d="M161.93,122.94s-.02-.01-.04-.02"/>
        </g>
        <g>
          <polyline class="cls-14" points="90.2 163 90.2 163 90.2 163"/>
          <path class="cls-5" d="M233.53,163.03c-23.8,13.38-47.6,26.76-71.4,40.13-23.98-13.39-47.95-26.78-71.93-40.16l71.43-40.21c23.97,13.41,47.93,26.83,71.9,40.24Z"/>
          <path class="cls-1" d="M233.57,165.41l-71.43,40.12v-2.37c23.79-13.38,47.59-26.76,71.39-40.13l.04,2.38Z"/>
          <path class="cls-10" d="M162.14,205.53c-23.98-13.39-47.96-26.78-71.94-40.17v-2.36c23.97,13.39,47.95,26.77,71.93,40.16v2.37Z"/>
          <path class="cls-13" d="M233.57,163.05s-.02-.01-.04-.02"/>
        </g>
      </g>
      <g>
        <g>
          <polyline class="cls-14" points="11.39 118.71 11.39 118.71 11.4 118.7"/>
          <path class="cls-5" d="M154.73,118.74c-23.8,13.38-47.6,26.76-71.4,40.13-23.98-13.39-47.95-26.78-71.93-40.16l71.43-40.21c23.97,13.41,47.93,26.83,71.9,40.24Z"/>
          <path class="cls-1" d="M154.76,121.12l-71.43,40.12v-2.37c23.79-13.38,47.59-26.76,71.39-40.13l.04,2.38Z"/>
          <path class="cls-10" d="M83.34,161.24c-23.98-13.39-47.96-26.78-71.94-40.17v-2.36c23.97,13.39,47.95,26.77,71.93,40.16v2.37Z"/>
          <path class="cls-13" d="M154.76,118.76s-.02-.01-.04-.02"/>
        </g>
        <g>
          <polyline class="cls-14" points="83.03 158.81 83.04 158.81 83.04 158.81"/>
          <path class="cls-5" d="M226.37,158.84c-23.8,13.38-47.6,26.76-71.4,40.13-23.98-13.39-47.95-26.78-71.93-40.16l71.43-40.21c23.97,13.41,47.93,26.83,71.9,40.24Z"/>
          <path class="cls-1" d="M226.41,161.22l-71.43,40.12v-2.37c23.79-13.38,47.59-26.76,71.39-40.13l.04,2.38Z"/>
          <path class="cls-10" d="M154.98,201.34c-23.98-13.39-47.96-26.78-71.94-40.17v-2.36c23.97,13.39,47.95,26.77,71.93,40.16v2.37Z"/>
          <path class="cls-13" d="M226.41,158.86s-.02-.01-.04-.02"/>
        </g>
      </g>
      <g>
        <g>
          <path class="cls-4" d="M99.7,99.74c-2.54,1.61-5.08,3.22-7.63,4.83,.02-29.61,.04-59.21,.06-88.82,2.47-1.46,4.93-2.91,7.4-4.37,.05,29.45,.11,58.91,.16,88.36Z"/>
          <path class="cls-8" d="M84.57,99.74c2.5,1.61,5,3.22,7.51,4.83,.04-29.61,.07-59.21,.11-88.82-2.48-1.46-4.97-2.91-7.45-4.37-.06,29.45-.11,58.91-.17,88.36Z"/>
        </g>
        <g>
          <path class="cls-7" d="M101.01,10.3v.52c-2.92,1.71-5.84,3.41-8.76,5.12-2.88-1.68-5.76-3.36-8.65-5.04v-.53c2.88,1.68,5.77,3.36,8.65,5.04,2.92-1.7,5.84-3.41,8.75-5.12Z"/>
          <path class="cls-2" d="M101.01,10.3c-2.92,1.71-5.84,3.41-8.75,5.12-2.88-1.68-5.77-3.36-8.65-5.04,2.87-1.67,5.74-3.33,8.6-4.99,2.94,1.64,5.87,3.28,8.8,4.92Z"/>
        </g>
        <g>
          <path class="cls-4" d="M92.66,14.78l-.48,.23c0-1.44,0-2.88,0-4.31,.15-.07,.31-.14,.46-.21,0,1.43,0,2.86,.01,4.29Z"/>
          <path class="cls-8" d="M91.72,14.78c.16,.08,.31,.16,.47,.23,0-1.44,0-2.88,0-4.31-.15-.07-.31-.14-.46-.21,0,1.43,0,2.86-.01,4.29Z"/>
        </g>
        <g>
          <path class="cls-4" d="M96.26,12.52l-.48,.23c0-1.44,0-2.88,0-4.31,.15-.07,.31-.14,.46-.21,0,1.43,0,2.86,.01,4.29Z"/>
          <path class="cls-8" d="M95.32,12.52c.16,.08,.31,.16,.47,.23,0-1.44,0-2.88,0-4.31-.15-.07-.31-.14-.46-.21,0,1.43,0,2.86-.01,4.29Z"/>
        </g>
        <g>
          <path class="cls-4" d="M99.7,10.47l-.48,.23c0-1.44,0-2.88,0-4.31,.15-.07,.31-.14,.46-.21,0,1.43,0,2.86,.01,4.29Z"/>
          <path class="cls-8" d="M98.76,10.47c.16,.08,.31,.16,.47,.23,0-1.44,0-2.88,0-4.31-.15-.07-.31-.14-.46-.21,0,1.43,0,2.86-.01,4.29Z"/>
        </g>
        <g>
          <path class="cls-4" d="M89.3,12.73l-.48,.23c0-1.44,0-2.88,0-4.31,.15-.07,.31-.14,.46-.21,0,1.43,0,2.86,.01,4.29Z"/>
          <path class="cls-8" d="M88.35,12.73c.16,.08,.31,.16,.47,.23,0-1.44,0-2.88,0-4.31-.15-.07-.31-.14-.46-.21,0,1.43,0,2.86-.01,4.29Z"/>
        </g>
        <g>
          <path class="cls-4" d="M85.51,10.47l-.48,.23c0-1.44,0-2.88,0-4.31,.15-.07,.31-.14,.46-.21,0,1.43,0,2.86,.01,4.29Z"/>
          <path class="cls-8" d="M84.57,10.47c.16,.08,.31,.16,.47,.23,0-1.44,0-2.88,0-4.31-.15-.07-.31-.14-.46-.21,0,1.43,0,2.86-.01,4.29Z"/>
        </g>
        <g>
          <path class="cls-7" d="M101.01,5.74v.52c-2.92,1.71-5.84,3.41-8.76,5.12-2.88-1.68-5.76-3.36-8.65-5.04v-.53c2.88,1.68,5.77,3.36,8.65,5.04,2.92-1.7,5.84-3.41,8.75-5.12Z"/>
          <path class="cls-2" d="M101.01,5.74c-2.92,1.71-5.84,3.41-8.75,5.12-2.88-1.68-5.77-3.36-8.65-5.04,2.87-1.67,5.74-3.33,8.6-4.99,2.94,1.64,5.87,3.28,8.8,4.92Z"/>
        </g>
        <g>
          <polygon class="cls-3" points="95.34 .03 92.08 7.46 92.07 7.47 88.85 0 95.31 0 95.34 .03"/>
          <polygon class="cls-9" points="92.08 7.46 92.08 9.73 91 9.12 90.81 9.01 85.54 5.87 85.54 5.8 85.55 3.73 88.81 0 88.85 0 92.07 7.47 92.08 7.46"/>
          <path class="cls-6" d="M98.61,5.9c-1.82,1.07-3.64,2.15-5.47,3.22l-1.07,.62v-2.27L95.34,.03l3.23,3.62,.02,.92,.02,1.07v.02s0,.24,0,.24Z"/>
        </g>
      </g>
      <path class="cls-8" d="M168.63,195.33c-40.5-23.73-81.01-47.45-121.51-71.18-.05-19.92-.11-39.83-.16-59.75,40.62,23.39,81.24,46.78,121.87,70.17-.07,20.25-.13,40.5-.2,60.75Z"/>
      <path class="cls-2" d="M168.83,134.57c-40.62-23.39-81.24-46.78-121.87-70.17,15.02-8.76,30.03-17.53,45.05-26.29,40.36,23.53,80.72,47.05,121.08,70.58-14.76,8.63-29.51,17.26-44.27,25.88Z"/>
      <path class="cls-4" d="M213.73,168.6c-15.03,8.91-30.07,17.82-45.1,26.73,.07-20.25,.13-40.5,.2-60.75,14.76-8.63,29.51-17.26,44.27-25.88,.21,19.97,.42,39.94,.63,59.91Z"/>
      <g>
        <polygon class="cls-3" points="92.65 41.73 82.51 66.1 82.5 66.14 72.47 41.64 92.58 41.64 92.65 41.73"/>
        <polygon class="cls-9" points="82.51 66.1 82.51 73.56 79.15 71.55 78.57 71.18 62.19 60.89 62.19 60.67 62.22 53.87 72.34 41.64 72.47 41.64 82.5 66.14 82.51 66.1"/>
        <path class="cls-6" d="M102.83,60.98c-5.66,3.51-11.33,7.04-17,10.55l-3.31,2.03v-7.46l10.14-24.37,10.05,11.87,.05,3.02,.06,3.51v.05s.02,.79,.02,.79Z"/>
      </g>
      <g>
        <polygon class="cls-3" points="139.17 49.03 124.37 89.82 124.34 89.88 109.72 48.88 139.05 48.88 139.17 49.03"/>
        <polygon class="cls-9" points="124.37 89.82 124.37 102.31 119.47 98.94 118.62 98.32 94.72 81.1 94.72 80.72 94.77 69.35 109.52 48.88 109.72 48.88 124.34 89.88 124.37 89.82"/>
        <path class="cls-6" d="M154.01,81.25c-8.26,5.88-16.53,11.78-24.81,17.66l-4.84,3.4v-12.49l14.8-40.79,14.66,19.87,.07,5.05,.09,5.88v.09s.03,1.33,.03,1.33Z"/>
      </g>
      <g>
        <polygon class="cls-3" points="182.3 84.02 168.83 116.36 168.81 116.41 155.51 83.9 182.19 83.9 182.3 84.02"/>
        <polygon class="cls-9" points="168.83 116.36 168.83 126.26 164.38 123.59 163.61 123.1 141.86 109.44 141.86 109.14 141.9 100.13 155.33 83.9 155.51 83.9 168.81 116.41 168.83 116.36"/>
        <path class="cls-6" d="M195.8,109.56c-7.51,4.66-15.04,9.34-22.57,14l-4.4,2.7v-9.9l13.46-32.34,13.34,15.75,.07,4,.08,4.66v.07s.02,1.05,.02,1.05Z"/>
      </g>
      <g>
        <g>
          <polygon class="cls-9" points="137.61 168.07 137.61 177.17 130.45 172.56 137.61 168.07"/>
          <polygon class="cls-6" points="137.61 162.31 137.61 168.07 130.45 172.56 130.45 157.97 134.01 153.69 137.61 162.31"/>
        </g>
        <g>
          <polygon class="cls-9" points="146.7 173.43 146.7 182.53 139.54 177.92 146.7 173.43"/>
          <polygon class="cls-6" points="146.7 167.67 146.7 173.43 139.54 177.92 139.54 163.32 143.1 159.05 146.7 167.67"/>
        </g>
        <g>
          <polygon class="cls-9" points="155.79 178.79 155.79 187.88 148.63 183.27 155.79 178.79"/>
          <polygon class="cls-6" points="155.79 173.03 155.79 178.79 148.63 183.27 148.63 168.68 152.19 164.41 155.79 173.03"/>
        </g>
        <g>
          <polygon class="cls-9" points="164.88 184.15 164.88 193.24 157.72 188.63 164.88 184.15"/>
          <polygon class="cls-6" points="164.88 178.39 164.88 184.15 157.72 188.63 157.72 174.04 161.28 169.77 164.88 178.39"/>
        </g>
      </g>
      <g>
        <g>
          <polygon class="cls-9" points="57.56 121.48 57.56 130.58 50.4 125.97 57.56 121.48"/>
          <polygon class="cls-6" points="57.56 115.72 57.56 121.48 50.4 125.97 50.4 111.37 53.95 107.1 57.56 115.72"/>
        </g>
        <g>
          <polygon class="cls-9" points="66.65 126.84 66.65 135.93 59.49 131.32 66.65 126.84"/>
          <polygon class="cls-6" points="66.65 121.08 66.65 126.84 59.49 131.32 59.49 116.73 63.04 112.46 66.65 121.08"/>
        </g>
        <g>
          <polygon class="cls-9" points="75.74 132.2 75.74 141.29 68.58 136.68 75.74 132.2"/>
          <polygon class="cls-6" points="75.74 126.44 75.74 132.2 68.58 136.68 68.58 122.09 72.13 117.82 75.74 126.44"/>
        </g>
        <g>
          <polygon class="cls-9" points="84.83 137.55 84.83 146.65 77.67 142.04 84.83 137.55"/>
          <polygon class="cls-6" points="84.83 131.8 84.83 137.55 77.67 142.04 77.67 127.45 81.22 123.18 84.83 131.8"/>
        </g>
      </g>
      <g>
        <g>
          <path class="cls-4" d="M87,147.56c-1.52,.96-3.05,1.92-4.57,2.87-.04-35.38-.07-70.75-.11-106.13,1.53-.9,3.07-1.8,4.6-2.7,.03,35.32,.05,70.63,.08,105.95Z"/>
          <path class="cls-8" d="M77.71,147.39c1.57,1.02,3.15,2.03,4.72,3.05-.04-35.38-.07-70.75-.11-106.13-1.54-.9-3.08-1.8-4.61-2.7,0,35.26,0,70.51,0,105.77Z"/>
        </g>
        <g>
          <path class="cls-7" d="M88,40.44v.41c-1.87,1.33-3.74,2.65-5.61,3.98-1.85-1.31-3.69-2.61-5.54-3.92v-.41c1.85,1.31,3.7,2.61,5.54,3.92,1.87-1.32,3.74-2.65,5.61-3.98Z"/>
          <path class="cls-2" d="M88,40.44c-1.87,1.33-3.74,2.65-5.61,3.98-1.85-1.31-3.7-2.61-5.54-3.92,1.84-1.29,3.67-2.59,5.51-3.88,1.88,1.27,3.76,2.55,5.64,3.82Z"/>
        </g>
        <g>
          <polygon class="cls-3" points="84.53 35.73 82.32 41.81 82.32 41.82 80.14 35.7 84.51 35.7 84.53 35.73"/>
          <polygon class="cls-9" points="82.32 41.81 82.32 43.67 81.59 43.16 81.46 43.07 77.9 40.51 77.9 40.45 77.91 38.76 80.11 35.7 80.14 35.7 82.32 41.82 82.32 41.81"/>
          <path class="cls-6" d="M86.74,40.53c-1.23,.88-2.46,1.76-3.7,2.63l-.72,.51v-1.86l2.21-6.08,2.18,2.96v.75s.02,.88,.02,.88h0s0,.21,0,.21Z"/>
        </g>
      </g>
      <g>
        <g>
          <path class="cls-8" d="M120.77,171.05c-11.94-7.07-23.87-14.14-35.81-21.21-.05-27.74-.09-55.49-.14-83.23,12.13,6.78,24.27,13.57,36.4,20.35-.15,28.03-.31,56.06-.46,84.09Z"/>
          <path class="cls-4" d="M121.23,86.96c-12.13-6.78-24.27-13.57-36.4-20.35,1.01-.67,2.01-1.35,3.02-2.02,12.07,6.79,24.15,13.58,36.22,20.37-.95,.67-1.89,1.33-2.84,2Z"/>
        </g>
        <g>
          <polygon class="cls-9" points="111.74 143.43 111.74 165.85 92.75 154.49 111.74 143.43"/>
          <polygon class="cls-6" points="111.74 129.24 111.74 143.43 92.75 154.49 92.75 118.52 102.18 107.99 111.74 129.24"/>
        </g>
      </g>
      <g>
        <g>
          <path class="cls-4" d="M128.21,172.56c-1.52,.96-3.05,1.92-4.57,2.87-.04-35.38-.07-70.75-.11-106.13,1.53-.9,3.07-1.8,4.6-2.7,.03,35.32,.05,70.63,.08,105.95Z"/>
          <path class="cls-8" d="M118.91,172.39c1.57,1.02,3.15,2.03,4.72,3.05-.04-35.38-.07-70.75-.11-106.13-1.54-.9-3.08-1.8-4.61-2.7,0,35.26,0,70.51,0,105.77Z"/>
        </g>
        <g>
          <path class="cls-7" d="M129.21,65.45v.41c-1.87,1.33-3.74,2.65-5.61,3.98-1.85-1.31-3.69-2.61-5.54-3.92v-.41c1.85,1.31,3.7,2.61,5.54,3.92,1.87-1.32,3.74-2.65,5.61-3.98Z"/>
          <path class="cls-2" d="M129.21,65.45c-1.87,1.33-3.74,2.65-5.61,3.98-1.85-1.31-3.7-2.61-5.54-3.92,1.84-1.29,3.67-2.59,5.51-3.88,1.88,1.27,3.76,2.55,5.64,3.82Z"/>
        </g>
        <g>
          <polygon class="cls-3" points="125.73 60.73 123.53 66.81 123.52 66.82 121.34 60.71 125.71 60.71 125.73 60.73"/>
          <polygon class="cls-9" points="123.53 66.81 123.53 68.67 122.8 68.17 122.67 68.07 119.11 65.51 119.11 65.45 119.11 63.76 121.31 60.71 121.34 60.71 123.52 66.82 123.53 66.81"/>
          <path class="cls-6" d="M127.94,65.53c-1.23,.88-2.46,1.76-3.7,2.63l-.72,.51v-1.86l2.21-6.08,2.18,2.96v.75s.02,.88,.02,.88h0s0,.21,0,.21Z"/>
        </g>
      </g>
      <g>
        <g>
          <path class="cls-4" d="M181.07,200.96c-2.54,1.61-5.08,3.22-7.63,4.83,.02-29.61,.04-59.21,.06-88.82,2.47-1.46,4.93-2.91,7.4-4.37,.05,29.45,.11,58.91,.16,88.36Z"/>
          <path class="cls-8" d="M165.94,200.96c2.5,1.61,5,3.22,7.51,4.83,.04-29.61,.07-59.21,.11-88.82-2.48-1.46-4.97-2.91-7.45-4.37-.06,29.45-.11,58.91-.17,88.36Z"/>
        </g>
        <g>
          <path class="cls-7" d="M182.38,111.52v.52c-2.92,1.71-5.84,3.41-8.76,5.12-2.88-1.68-5.76-3.36-8.65-5.04v-.53c2.88,1.68,5.77,3.36,8.65,5.04,2.92-1.7,5.84-3.41,8.75-5.12Z"/>
          <path class="cls-2" d="M182.38,111.52c-2.92,1.71-5.84,3.41-8.75,5.12-2.88-1.68-5.77-3.36-8.65-5.04,2.87-1.67,5.74-3.33,8.6-4.99,2.94,1.64,5.87,3.28,8.8,4.92Z"/>
        </g>
        <g>
          <path class="cls-4" d="M174.03,116l-.48,.23c0-1.44,0-2.88,0-4.31,.15-.07,.31-.14,.46-.21,0,1.43,0,2.86,.01,4.29Z"/>
          <path class="cls-8" d="M173.09,116c.16,.08,.31,.16,.47,.23,0-1.44,0-2.88,0-4.31-.15-.07-.31-.14-.46-.21,0,1.43,0,2.86-.01,4.29Z"/>
        </g>
        <g>
          <path class="cls-4" d="M177.63,113.74l-.48,.23c0-1.44,0-2.88,0-4.31,.15-.07,.31-.14,.46-.21,0,1.43,0,2.86,.01,4.29Z"/>
          <path class="cls-8" d="M176.69,113.74c.16,.08,.31,.16,.47,.23,0-1.44,0-2.88,0-4.31-.15-.07-.31-.14-.46-.21,0,1.43,0,2.86-.01,4.29Z"/>
        </g>
        <g>
          <path class="cls-4" d="M181.07,111.69l-.48,.23c0-1.44,0-2.88,0-4.31,.15-.07,.31-.14,.46-.21,0,1.43,0,2.86,.01,4.29Z"/>
          <path class="cls-8" d="M180.13,111.69c.16,.08,.31,.16,.47,.23,0-1.44,0-2.88,0-4.31-.15-.07-.31-.14-.46-.21,0,1.43,0,2.86-.01,4.29Z"/>
        </g>
        <g>
          <path class="cls-4" d="M170.67,113.95l-.48,.23c0-1.44,0-2.88,0-4.31,.15-.07,.31-.14,.46-.21,0,1.43,0,2.86,.01,4.29Z"/>
          <path class="cls-8" d="M169.72,113.95c.16,.08,.31,.16,.47,.23,0-1.44,0-2.88,0-4.31-.15-.07-.31-.14-.46-.21,0,1.43,0,2.86-.01,4.29Z"/>
        </g>
        <g>
          <path class="cls-4" d="M166.88,111.69l-.48,.23c0-1.44,0-2.88,0-4.31,.15-.07,.31-.14,.46-.21,0,1.43,0,2.86,.01,4.29Z"/>
          <path class="cls-8" d="M165.94,111.69c.16,.08,.31,.16,.47,.23,0-1.44,0-2.88,0-4.31-.15-.07-.31-.14-.46-.21,0,1.43,0,2.86-.01,4.29Z"/>
        </g>
        <g>
          <path class="cls-7" d="M182.38,106.96v.52c-2.92,1.71-5.84,3.41-8.76,5.12-2.88-1.68-5.76-3.36-8.65-5.04v-.53c2.88,1.68,5.77,3.36,8.65,5.04,2.92-1.7,5.84-3.41,8.75-5.12Z"/>
          <path class="cls-2" d="M182.38,106.96c-2.92,1.71-5.84,3.41-8.75,5.12-2.88-1.68-5.77-3.36-8.65-5.04,2.87-1.67,5.74-3.33,8.6-4.99,2.94,1.64,5.87,3.28,8.8,4.92Z"/>
        </g>
        <g>
          <polygon class="cls-3" points="176.71 101.25 173.45 108.68 173.44 108.69 170.22 101.22 176.69 101.22 176.71 101.25"/>
          <polygon class="cls-9" points="173.45 108.68 173.45 110.95 172.37 110.34 172.18 110.22 166.92 107.09 166.92 107.02 166.93 104.95 170.18 101.22 170.22 101.22 173.44 108.69 173.45 108.68"/>
          <path class="cls-6" d="M179.98,107.11c-1.82,1.07-3.64,2.15-5.47,3.22l-1.07,.62v-2.27l3.26-7.43,3.23,3.62,.02,.92,.02,1.07v.02s0,.24,0,.24Z"/>
        </g>
      </g>
      <g>
        <g>
          <path class="cls-4" d="M228.38,169.16l-7.63,4.83c.02-29.61,.04-59.21,.06-88.82,2.47-1.46,4.93-2.91,7.4-4.37,.05,29.45,.11,58.91,.16,88.36Z"/>
          <path class="cls-8" d="M213.25,169.16c2.5,1.61,5,3.22,7.51,4.83,.04-29.61,.07-59.21,.11-88.82-2.48-1.46-4.97-2.91-7.45-4.37-.06,29.45-.11,58.91-.17,88.36Z"/>
        </g>
        <g>
          <path class="cls-7" d="M229.68,79.71v.52c-2.92,1.71-5.84,3.41-8.76,5.12-2.88-1.68-5.76-3.36-8.65-5.04v-.53c2.88,1.68,5.77,3.36,8.65,5.04,2.92-1.7,5.84-3.41,8.75-5.12Z"/>
          <path class="cls-2" d="M229.68,79.71c-2.92,1.71-5.84,3.41-8.75,5.12-2.88-1.68-5.77-3.36-8.65-5.04,2.87-1.67,5.74-3.33,8.6-4.99,2.94,1.64,5.87,3.28,8.8,4.92Z"/>
        </g>
        <g>
          <path class="cls-4" d="M221.34,84.2l-.48,.23c0-1.44,0-2.88,0-4.31,.15-.07,.31-.14,.46-.21,0,1.43,0,2.86,.01,4.29Z"/>
          <path class="cls-8" d="M220.4,84.2c.16,.08,.31,.16,.47,.23,0-1.44,0-2.88,0-4.31-.15-.07-.31-.14-.46-.21,0,1.43,0,2.86-.01,4.29Z"/>
        </g>
        <g>
          <path class="cls-4" d="M224.94,81.94l-.48,.23c0-1.44,0-2.88,0-4.31,.15-.07,.31-.14,.46-.21,0,1.43,0,2.86,.01,4.29Z"/>
          <path class="cls-8" d="M223.99,81.94c.16,.08,.31,.16,.47,.23,0-1.44,0-2.88,0-4.31-.15-.07-.31-.14-.46-.21,0,1.43,0,2.86-.01,4.29Z"/>
        </g>
        <g>
          <path class="cls-4" d="M228.38,79.88l-.48,.23c0-1.44,0-2.88,0-4.31,.15-.07,.31-.14,.46-.21,0,1.43,0,2.86,.01,4.29Z"/>
          <path class="cls-8" d="M227.43,79.88c.16,.08,.31,.16,.47,.23,0-1.44,0-2.88,0-4.31-.15-.07-.31-.14-.46-.21,0,1.43,0,2.86-.01,4.29Z"/>
        </g>
        <g>
          <path class="cls-4" d="M217.97,82.15l-.48,.23c0-1.44,0-2.88,0-4.31,.15-.07,.31-.14,.46-.21,0,1.43,0,2.86,.01,4.29Z"/>
          <path class="cls-8" d="M217.03,82.15c.16,.08,.31,.16,.47,.23,0-1.44,0-2.88,0-4.31-.15-.07-.31-.14-.46-.21,0,1.43,0,2.86-.01,4.29Z"/>
        </g>
        <g>
          <path class="cls-4" d="M214.19,79.88l-.48,.23c0-1.44,0-2.88,0-4.31,.15-.07,.31-.14,.46-.21,0,1.43,0,2.86,.01,4.29Z"/>
          <path class="cls-8" d="M213.25,79.88c.16,.08,.31,.16,.47,.23,0-1.44,0-2.88,0-4.31-.15-.07-.31-.14-.46-.21,0,1.43,0,2.86-.01,4.29Z"/>
        </g>
        <g>
          <path class="cls-7" d="M229.68,75.16v.52c-2.92,1.71-5.84,3.41-8.76,5.12-2.88-1.68-5.76-3.36-8.65-5.04v-.53c2.88,1.68,5.77,3.36,8.65,5.04,2.92-1.7,5.84-3.41,8.75-5.12Z"/>
          <path class="cls-2" d="M229.68,75.16c-2.92,1.71-5.84,3.41-8.75,5.12-2.88-1.68-5.77-3.36-8.65-5.04,2.87-1.67,5.74-3.33,8.6-4.99,2.94,1.64,5.87,3.28,8.8,4.92Z"/>
        </g>
        <g>
          <polygon class="cls-3" points="224.01 69.44 220.75 76.87 220.75 76.88 217.53 69.42 223.99 69.42 224.01 69.44"/>
          <polygon class="cls-9" points="220.75 76.87 220.75 79.15 219.67 78.53 219.49 78.42 214.22 75.28 214.22 75.22 214.23 73.15 217.48 69.42 217.53 69.42 220.75 76.88 220.75 76.87"/>
          <path class="cls-6" d="M227.29,75.31c-1.82,1.07-3.64,2.15-5.47,3.22l-1.07,.62v-2.27l3.26-7.43,3.23,3.62,.02,.92,.02,1.07v.02s0,.24,0,.24Z"/>
        </g>
      </g>
      <g>
        <g>
          <path class="cls-4" d="M47.12,123.87l-7.63,4.83c.02-29.61,.04-59.21,.06-88.82,2.47-1.46,4.93-2.91,7.4-4.37,.05,29.45,.11,58.91,.16,88.36Z"/>
          <path class="cls-8" d="M31.99,123.87c2.5,1.61,5,3.22,7.51,4.83,.04-29.61,.07-59.21,.11-88.82-2.48-1.46-4.97-2.91-7.45-4.37-.06,29.45-.11,58.91-.17,88.36Z"/>
        </g>
        <g>
          <path class="cls-7" d="M48.43,34.42v.52c-2.92,1.71-5.84,3.41-8.76,5.12-2.88-1.68-5.76-3.36-8.65-5.04v-.53c2.88,1.68,5.77,3.36,8.65,5.04,2.92-1.7,5.84-3.41,8.75-5.12Z"/>
          <path class="cls-2" d="M48.43,34.42c-2.92,1.71-5.84,3.41-8.75,5.12-2.88-1.68-5.77-3.36-8.65-5.04,2.87-1.67,5.74-3.33,8.6-4.99,2.94,1.64,5.87,3.28,8.8,4.92Z"/>
        </g>
        <g>
          <path class="cls-4" d="M40.08,38.91l-.48,.23c0-1.44,0-2.88,0-4.31,.15-.07,.31-.14,.46-.21,0,1.43,0,2.86,.01,4.29Z"/>
          <path class="cls-8" d="M39.14,38.91c.16,.08,.31,.16,.47,.23,0-1.44,0-2.88,0-4.31-.15-.07-.31-.14-.46-.21,0,1.43,0,2.86-.01,4.29Z"/>
        </g>
        <g>
          <path class="cls-4" d="M43.68,36.64l-.48,.23c0-1.44,0-2.88,0-4.31,.15-.07,.31-.14,.46-.21,0,1.43,0,2.86,.01,4.29Z"/>
          <path class="cls-8" d="M42.74,36.64c.16,.08,.31,.16,.47,.23,0-1.44,0-2.88,0-4.31-.15-.07-.31-.14-.46-.21,0,1.43,0,2.86-.01,4.29Z"/>
        </g>
        <g>
          <path class="cls-4" d="M47.12,34.59l-.48,.23c0-1.44,0-2.88,0-4.31,.15-.07,.31-.14,.46-.21,0,1.43,0,2.86,.01,4.29Z"/>
          <path class="cls-8" d="M46.18,34.59c.16,.08,.31,.16,.47,.23,0-1.44,0-2.88,0-4.31-.15-.07-.31-.14-.46-.21,0,1.43,0,2.86-.01,4.29Z"/>
        </g>
        <g>
          <path class="cls-4" d="M36.72,36.85l-.48,.23c0-1.44,0-2.88,0-4.31,.15-.07,.31-.14,.46-.21,0,1.43,0,2.86,.01,4.29Z"/>
          <path class="cls-8" d="M35.77,36.85c.16,.08,.31,.16,.47,.23,0-1.44,0-2.88,0-4.31-.15-.07-.31-.14-.46-.21,0,1.43,0,2.86-.01,4.29Z"/>
        </g>
        <g>
          <path class="cls-4" d="M32.93,34.59l-.48,.23c0-1.44,0-2.88,0-4.31,.15-.07,.31-.14,.46-.21,0,1.43,0,2.86,.01,4.29Z"/>
          <path class="cls-8" d="M31.99,34.59c.16,.08,.31,.16,.47,.23,0-1.44,0-2.88,0-4.31-.15-.07-.31-.14-.46-.21,0,1.43,0,2.86-.01,4.29Z"/>
        </g>
        <g>
          <path class="cls-7" d="M48.43,29.86v.52c-2.92,1.71-5.84,3.41-8.76,5.12-2.88-1.68-5.76-3.36-8.65-5.04v-.53c2.88,1.68,5.77,3.36,8.65,5.04,2.92-1.7,5.84-3.41,8.75-5.12Z"/>
          <path class="cls-2" d="M48.43,29.86c-2.92,1.71-5.84,3.41-8.75,5.12-2.88-1.68-5.77-3.36-8.65-5.04,2.87-1.67,5.74-3.33,8.6-4.99,2.94,1.64,5.87,3.28,8.8,4.92Z"/>
        </g>
        <g>
          <polygon class="cls-3" points="42.76 24.15 39.5 31.58 39.49 31.59 36.27 24.12 42.73 24.12 42.76 24.15"/>
          <polygon class="cls-9" points="39.5 31.58 39.5 33.86 38.42 33.24 38.23 33.13 32.96 29.99 32.96 29.92 32.97 27.85 36.23 24.12 36.27 24.12 39.49 31.59 39.5 31.58"/>
          <path class="cls-6" d="M46.03,30.02c-1.82,1.07-3.64,2.15-5.47,3.22l-1.07,.62v-2.27l3.26-7.43,3.23,3.62,.02,.92,.02,1.07v.02s0,.24,0,.24Z"/>
        </g>
      </g>
    </g>
  </g>
</svg>