<?xml version="1.0" encoding="UTF-8"?>
<svg id="Layer_2" data-name="Layer 2" xmlns="http://www.w3.org/2000/svg" viewBox="0 0 317.35 196.87">
  <defs>
    <style>
      .cls-1 {
        fill: #69af31;
      }

      .cls-2 {
        fill: #683728;
      }

      .cls-3 {
        fill: #f4efe4;
      }

      .cls-4 {
        fill: #df9c84;
      }

      .cls-5 {
        fill: #c4bfb9;
      }

      .cls-6 {
        fill: #ad5c45;
      }

      .cls-7 {
        fill: #e09b83;
      }

      .cls-8 {
        fill: #355818;
      }

      .cls-9 {
        fill: #442f2e;
      }

      .cls-10 {
        fill: #998575;
      }

      .cls-11 {
        fill: #87c059;
      }

      .cls-12 {
        fill: #2b1716;
      }

      .cls-13 {
        fill: #534741;
      }

      .cls-14 {
        stroke-width: .1px;
      }

      .cls-14, .cls-15, .cls-16, .cls-17, .cls-18, .cls-19, .cls-20, .cls-21, .cls-22 {
        fill: none;
        stroke: #231f20;
        stroke-miterlimit: 10;
      }

      .cls-15 {
        stroke-width: .1px;
      }

      .cls-16 {
        stroke-width: .46px;
      }

      .cls-17 {
        stroke-width: .11px;
      }

      .cls-18 {
        stroke-width: .11px;
      }

      .cls-19 {
        stroke-width: .13px;
      }

      .cls-20 {
        stroke-width: .13px;
      }

      .cls-21 {
        stroke-width: .03px;
      }

      .cls-22 {
        stroke-width: .03px;
      }
    </style>
  </defs>
  <g id="Layer_2-2" data-name="Layer 2">
    <g>
      <g>
        <g>
          <g>
            <polyline class="cls-20" points="79.9 85.44 79.91 85.44 79.91 85.43"/>
            <path class="cls-5" d="M204.51,85.46c-20.69,11.63-41.38,23.26-62.07,34.89-20.84-11.64-41.69-23.28-62.53-34.91l62.09-34.96c20.83,11.66,41.67,23.32,62.51,34.98Z"/>
            <path class="cls-3" d="M204.54,87.53l-62.09,34.88v-2.06c20.68-11.63,41.37-23.26,62.06-34.89l.03,2.07Z"/>
            <path class="cls-2" d="M142.45,122.41c-20.85-11.64-41.69-23.28-62.53-34.92v-2.06c20.84,11.64,41.68,23.28,62.53,34.91v2.06Z"/>
            <path class="cls-19" d="M204.54,85.48s-.02-.01-.03-.02"/>
          </g>
          <g>
            <polyline class="cls-20" points="142.18 120.3 142.19 120.3 142.19 120.3"/>
            <path class="cls-5" d="M266.79,120.32c-20.69,11.63-41.38,23.26-62.07,34.89-20.84-11.64-41.69-23.28-62.53-34.91l62.09-34.96c20.83,11.66,41.67,23.32,62.51,34.98Z"/>
            <path class="cls-4" d="M266.82,122.39l-62.09,34.88v-2.06c20.68-11.63,41.37-23.26,62.06-34.89l.03,2.07Z"/>
            <path class="cls-2" d="M204.73,157.27c-20.85-11.64-41.69-23.28-62.53-34.92v-2.06c20.84,11.64,41.68,23.28,62.53,34.91v2.06Z"/>
            <path class="cls-19" d="M266.82,120.34s-.02-.01-.03-.02"/>
          </g>
        </g>
        <g>
          <g>
            <polyline class="cls-20" points="79.9 84.15 79.9 84.15 79.91 84.15"/>
            <path class="cls-6" d="M204.5,84.17c-20.69,11.63-41.38,23.26-62.07,34.89-20.84-11.64-41.69-23.28-62.53-34.91l62.09-34.96c20.83,11.66,41.67,23.32,62.51,34.98Z"/>
            <path class="cls-3" d="M204.53,86.24l-62.09,34.88v-2.06c20.68-11.63,41.37-23.26,62.06-34.89l.03,2.07Z"/>
            <path class="cls-2" d="M142.44,121.12c-20.85-11.64-41.69-23.28-62.53-34.92v-2.06c20.84,11.64,41.68,23.28,62.53,34.91v2.06Z"/>
            <path class="cls-19" d="M204.53,84.19s-.02-.01-.03-.02"/>
          </g>
          <g>
            <polyline class="cls-6" points="142.18 119.01 142.18 119.01 142.19 119.01"/>
            <path class="cls-6" d="M266.78,119.04c-20.69,11.63-41.38,23.26-62.07,34.89-20.84-11.64-41.69-23.28-62.53-34.91l62.09-34.96c20.83,11.66,41.67,23.32,62.51,34.98Z"/>
            <path class="cls-4" d="M266.81,121.1l-62.09,34.88v-2.06c20.68-11.63,41.37-23.26,62.06-34.89l.03,2.07Z"/>
            <path class="cls-2" d="M204.72,155.98c-20.85-11.64-41.69-23.28-62.53-34.92v-2.06c20.84,11.64,41.68,23.28,62.53,34.91v2.06Z"/>
            <path class="cls-6" d="M266.81,119.05s-.02-.01-.03-.02"/>
          </g>
        </g>
      </g>
      <g>
        <g>
          <g>
            <polyline class="cls-17" points="86.83 82.15 86.84 82.15 86.84 82.15"/>
            <path class="cls-5" d="M193.98,82.17c-17.79,10-35.58,20-53.37,30-17.92-10.01-35.85-20.02-53.77-30.02l53.39-30.06c17.92,10.03,35.83,20.06,53.75,30.08Z"/>
            <path class="cls-3" d="M194.01,83.95l-53.39,29.99v-1.77c17.79-10,35.58-20,53.37-30l.03,1.78Z"/>
            <path class="cls-2" d="M140.62,113.94c-17.92-10.01-35.85-20.02-53.77-30.02v-1.77c17.92,10.01,35.84,20.01,53.77,30.02v1.77Z"/>
            <path class="cls-18" d="M194.01,82.18s-.02-.01-.03-.02"/>
          </g>
          <g>
            <polyline class="cls-17" points="140.39 112.13 140.39 112.13 140.4 112.13"/>
            <path class="cls-5" d="M247.54,112.15c-17.79,10-35.58,20-53.37,30-17.92-10.01-35.85-20.02-53.77-30.02l53.39-30.06c17.92,10.03,35.83,20.06,53.75,30.08Z"/>
            <path class="cls-4" d="M247.56,113.93l-53.39,29.99v-1.77c17.79-10,35.58-20,53.37-30l.03,1.78Z"/>
            <path class="cls-2" d="M194.17,143.92c-17.92-10.01-35.85-20.02-53.77-30.02v-1.77c17.92,10.01,35.84,20.01,53.77,30.02v1.77Z"/>
            <path class="cls-18" d="M247.56,112.16s-.02-.01-.03-.02"/>
          </g>
        </g>
        <g>
          <g>
            <polyline class="cls-17" points="86.83 81.04 86.83 81.04 86.84 81.04"/>
            <path class="cls-6" d="M193.98,81.06c-17.79,10-35.58,20-53.37,30-17.92-10.01-35.85-20.02-53.77-30.02l53.39-30.06c17.92,10.03,35.83,20.06,53.75,30.08Z"/>
            <path class="cls-3" d="M194.01,82.84l-53.39,29.99v-1.77c17.79-10,35.58-20,53.37-30l.03,1.78Z"/>
            <path class="cls-2" d="M140.61,112.83c-17.92-10.01-35.85-20.02-53.77-30.02v-1.77c17.92,10.01,35.84,20.01,53.77,30.02v1.77Z"/>
            <path class="cls-18" d="M194.01,81.08s-.02-.01-.03-.02"/>
          </g>
          <g>
            <polyline class="cls-6" points="140.38 111.02 140.39 111.02 140.39 111.02"/>
            <path class="cls-6" d="M247.53,111.04c-17.79,10-35.58,20-53.37,30-17.92-10.01-35.85-20.02-53.77-30.02l53.39-30.06c17.92,10.03,35.83,20.06,53.75,30.08Z"/>
            <path class="cls-4" d="M247.56,112.82l-53.39,29.99v-1.77c17.79-10,35.58-20,53.37-30l.03,1.78Z"/>
            <path class="cls-2" d="M194.17,142.81c-17.92-10.01-35.85-20.02-53.77-30.02v-1.77c17.92,10.01,35.84,20.01,53.77,30.02v1.77Z"/>
            <path class="cls-6" d="M247.56,111.06s-.02-.01-.03-.02"/>
          </g>
        </g>
      </g>
      <g>
        <g>
          <g>
            <polyline class="cls-17" points="96.12 87.35 96.13 87.34 96.13 87.34"/>
            <path class="cls-5" d="M203.27,87.37c-17.79,10-35.58,20-53.37,30-17.92-10.01-35.85-20.02-53.77-30.02l53.39-30.06c17.92,10.03,35.83,20.06,53.75,30.08Z"/>
            <path class="cls-3" d="M203.3,89.15l-53.39,29.99v-1.77c17.79-10,35.58-20,53.37-30l.03,1.78Z"/>
            <path class="cls-2" d="M149.9,119.14c-17.92-10.01-35.85-20.02-53.77-30.02v-1.77c17.92,10.01,35.84,20.01,53.77,30.02v1.77Z"/>
            <path class="cls-18" d="M203.3,87.38s-.02-.01-.03-.02"/>
          </g>
          <g>
            <polyline class="cls-17" points="149.68 117.33 149.68 117.32 149.68 117.32"/>
            <path class="cls-5" d="M256.83,117.35c-17.79,10-35.58,20-53.37,30-17.92-10.01-35.85-20.02-53.77-30.02l53.39-30.06c17.92,10.03,35.83,20.06,53.75,30.08Z"/>
            <path class="cls-4" d="M256.85,119.12l-53.39,29.99v-1.77c17.79-10,35.58-20,53.37-30l.03,1.78Z"/>
            <path class="cls-2" d="M203.46,149.11c-17.92-10.01-35.85-20.02-53.77-30.02v-1.77c17.92,10.01,35.84,20.01,53.77,30.02v1.77Z"/>
            <path class="cls-18" d="M256.85,117.36s-.02-.01-.03-.02"/>
          </g>
        </g>
        <g>
          <g>
            <polyline class="cls-17" points="96.12 86.24 96.12 86.24 96.13 86.24"/>
            <path class="cls-6" d="M203.27,86.26c-17.79,10-35.58,20-53.37,30-17.92-10.01-35.85-20.02-53.77-30.02l53.39-30.06c17.92,10.03,35.83,20.06,53.75,30.08Z"/>
            <path class="cls-3" d="M203.29,88.04l-53.39,29.99v-1.77c17.79-10,35.58-20,53.37-30l.03,1.78Z"/>
            <path class="cls-2" d="M149.9,118.03c-17.92-10.01-35.85-20.02-53.77-30.02v-1.77c17.92,10.01,35.84,20.01,53.77,30.02v1.77Z"/>
            <path class="cls-18" d="M203.29,86.27s-.02-.01-.03-.02"/>
          </g>
          <g>
            <polyline class="cls-6" points="149.67 116.22 149.68 116.22 149.68 116.21"/>
            <path class="cls-6" d="M256.82,116.24c-17.79,10-35.58,20-53.37,30-17.92-10.01-35.85-20.02-53.77-30.02l53.39-30.06c17.92,10.03,35.83,20.06,53.75,30.08Z"/>
            <path class="cls-4" d="M256.85,118.02l-53.39,29.99v-1.77c17.79-10,35.58-20,53.37-30l.03,1.78Z"/>
            <path class="cls-2" d="M203.46,148.01c-17.92-10.01-35.85-20.02-53.77-30.02v-1.77c17.92,10.01,35.84,20.01,53.77,30.02v1.77Z"/>
            <path class="cls-6" d="M256.85,116.25s-.02-.01-.03-.02"/>
          </g>
        </g>
      </g>
      <g>
        <g>
          <g>
            <polyline class="cls-15" points="93.48 79.2 93.49 79.2 93.49 79.2"/>
            <path class="cls-5" d="M187.77,79.22c-15.65,8.8-31.31,17.6-46.97,26.4-15.77-8.81-31.54-17.61-47.32-26.42l46.98-26.45c15.77,8.82,31.53,17.65,47.3,26.47Z"/>
            <path class="cls-3" d="M187.79,80.79l-46.98,26.39v-1.56c15.65-8.8,31.31-17.6,46.96-26.4l.02,1.57Z"/>
            <path class="cls-2" d="M140.81,107.18c-15.77-8.81-31.55-17.61-47.32-26.42v-1.56c15.77,8.81,31.54,17.61,47.31,26.42v1.56Z"/>
            <path class="cls-14" d="M187.79,79.23s-.02,0-.02-.01"/>
          </g>
          <g>
            <polyline class="cls-15" points="140.61 105.58 140.61 105.58 140.61 105.58"/>
            <path class="cls-5" d="M234.9,105.6c-15.65,8.8-31.31,17.6-46.97,26.4-15.77-8.81-31.54-17.61-47.32-26.42l46.98-26.45c15.77,8.82,31.53,17.65,47.3,26.47Z"/>
            <path class="cls-4" d="M234.92,107.17l-46.98,26.39v-1.56c15.65-8.8,31.31-17.6,46.96-26.4l.02,1.57Z"/>
            <path class="cls-2" d="M187.94,133.56c-15.77-8.81-31.55-17.61-47.32-26.42v-1.56c15.77,8.81,31.54,17.61,47.31,26.42v1.56Z"/>
            <path class="cls-14" d="M234.92,105.61s-.02,0-.02-.01"/>
          </g>
        </g>
        <g>
          <g>
            <polyline class="cls-15" points="93.48 78.23 93.48 78.23 93.48 78.23"/>
            <path class="cls-6" d="M187.77,78.25c-15.65,8.8-31.31,17.6-46.97,26.4-15.77-8.81-31.54-17.61-47.32-26.42l46.98-26.45c15.77,8.82,31.53,17.65,47.3,26.47Z"/>
            <path class="cls-3" d="M187.79,79.81l-46.98,26.39v-1.56c15.65-8.8,31.31-17.6,46.96-26.4l.02,1.57Z"/>
            <path class="cls-2" d="M140.81,106.2c-15.77-8.81-31.55-17.61-47.32-26.42v-1.56c15.77,8.81,31.54,17.61,47.31,26.42v1.56Z"/>
            <path class="cls-14" d="M187.79,78.26s-.02,0-.02-.01"/>
          </g>
          <g>
            <polyline class="cls-6" points="140.6 104.61 140.61 104.61 140.61 104.61"/>
            <path class="cls-6" d="M234.89,104.63c-15.65,8.8-31.31,17.6-46.97,26.4-15.77-8.81-31.54-17.61-47.32-26.42l46.98-26.45c15.77,8.82,31.53,17.65,47.3,26.47Z"/>
            <path class="cls-4" d="M234.92,106.19l-46.98,26.39v-1.56c15.65-8.8,31.31-17.6,46.96-26.4l.02,1.57Z"/>
            <path class="cls-2" d="M187.93,132.58c-15.77-8.81-31.55-17.61-47.32-26.42v-1.56c15.77,8.81,31.54,17.61,47.31,26.42v1.56Z"/>
            <path class="cls-6" d="M234.92,104.64s-.02,0-.02-.01"/>
          </g>
        </g>
      </g>
      <g>
        <g>
          <g>
            <polyline class="cls-15" points="109.05 87.88 109.05 87.88 109.05 87.88"/>
            <path class="cls-5" d="M203.33,87.9c-15.65,8.8-31.31,17.6-46.97,26.4-15.77-8.81-31.54-17.61-47.32-26.42l46.98-26.45c15.77,8.82,31.53,17.65,47.3,26.47Z"/>
            <path class="cls-3" d="M203.36,89.47l-46.98,26.39v-1.56c15.65-8.8,31.31-17.6,46.96-26.4l.02,1.57Z"/>
            <path class="cls-2" d="M156.37,115.86c-15.77-8.81-31.55-17.61-47.32-26.42v-1.56c15.77,8.81,31.54,17.61,47.31,26.42v1.56Z"/>
            <path class="cls-14" d="M203.36,87.91s-.02,0-.02-.01"/>
          </g>
          <g>
            <polyline class="cls-15" points="156.17 114.26 156.18 114.26 156.18 114.26"/>
            <path class="cls-5" d="M250.46,114.28c-15.65,8.8-31.31,17.6-46.97,26.4-15.77-8.81-31.54-17.61-47.32-26.42l46.98-26.45c15.77,8.82,31.53,17.65,47.3,26.47Z"/>
            <path class="cls-4" d="M250.49,115.85l-46.98,26.39v-1.56c15.65-8.8,31.31-17.6,46.96-26.4l.02,1.57Z"/>
            <path class="cls-2" d="M203.5,142.24c-15.77-8.81-31.55-17.61-47.32-26.42v-1.56c15.77,8.81,31.54,17.61,47.31,26.42v1.56Z"/>
            <path class="cls-14" d="M250.49,114.29s-.02,0-.02-.01"/>
          </g>
        </g>
        <g>
          <g>
            <polyline class="cls-15" points="109.04 86.91 109.05 86.91 109.05 86.91"/>
            <path class="cls-6" d="M203.33,86.93c-15.65,8.8-31.31,17.6-46.97,26.4-15.77-8.81-31.54-17.61-47.32-26.42l46.98-26.45c15.77,8.82,31.53,17.65,47.3,26.47Z"/>
            <path class="cls-3" d="M203.36,88.49l-46.98,26.39v-1.56c15.65-8.8,31.31-17.6,46.96-26.4l.02,1.57Z"/>
            <path class="cls-2" d="M156.37,114.88c-15.77-8.81-31.55-17.61-47.32-26.42v-1.56c15.77,8.81,31.54,17.61,47.31,26.42v1.56Z"/>
            <path class="cls-14" d="M203.36,86.94s-.02,0-.02-.01"/>
          </g>
          <g>
            <polyline class="cls-6" points="156.17 113.29 156.17 113.29 156.18 113.29"/>
            <path class="cls-6" d="M250.46,113.31c-15.65,8.8-31.31,17.6-46.97,26.4-15.77-8.81-31.54-17.61-47.32-26.42l46.98-26.45c15.77,8.82,31.53,17.65,47.3,26.47Z"/>
            <path class="cls-4" d="M250.48,114.87l-46.98,26.39v-1.56c15.65-8.8,31.31-17.6,46.96-26.4l.02,1.57Z"/>
            <path class="cls-2" d="M203.5,141.26c-15.77-8.81-31.55-17.61-47.32-26.42v-1.56c15.77,8.81,31.54,17.61,47.31,26.42v1.56Z"/>
            <path class="cls-6" d="M250.48,113.32s-.02,0-.02-.01"/>
          </g>
        </g>
      </g>
      <g>
        <path class="cls-1" d="M281.98,92.88c-3.7,2.23-7.39,4.45-11.09,6.68,3.69,2.12,7.38,4.23,11.07,6.35,3.73-2.09,7.47-4.17,11.2-6.26-3.73-2.26-7.46-4.51-11.19-6.77Z"/>
        <path class="cls-13" d="M281.9,116.3c-.51-.55-1.03-1.11-1.54-1.66-.03,6.84-.06,13.68-.09,20.52l1.67,.83c-.01-6.56-.02-13.13-.04-19.69Z"/>
        <path class="cls-10" d="M283.46,116.39c-.52-.17-1.04-.33-1.55-.5,.01,6.7,.02,13.41,.03,20.11,.51-.26,1.01-.51,1.52-.77v-18.84Z"/>
        <path class="cls-8" d="M281.89,118.53c-3.67-2.19-7.34-4.37-11-6.56v-12.41c3.69,2.12,7.38,4.23,11.07,6.35-.02,4.21-.05,8.42-.07,12.62Z"/>
        <path class="cls-11" d="M293.04,111.84c-3.72,2.23-7.43,4.45-11.15,6.68,.02-4.21,.05-8.42,.07-12.62,3.73-2.09,7.47-4.17,11.2-6.26-.04,4.07-.08,8.13-.12,12.2Z"/>
      </g>
      <g>
        <path class="cls-1" d="M303.36,95.45c-4.62,2.78-9.24,5.57-13.87,8.35,4.62,2.65,9.23,5.29,13.85,7.94,4.67-2.61,9.34-5.22,14.01-7.83-4.66-2.82-9.32-5.64-13.99-8.46Z"/>
        <path class="cls-13" d="M303.27,124.74c-.64-.69-1.29-1.38-1.93-2.07-.04,8.55-.07,17.11-.11,25.66l2.08,1.04c-.01-8.21-.03-16.42-.04-24.63Z"/>
        <path class="cls-10" d="M305.21,124.84c-.65-.21-1.3-.42-1.94-.63,.01,8.38,.03,16.77,.04,25.15,.63-.32,1.27-.64,1.9-.96v-23.56Z"/>
        <path class="cls-8" d="M303.25,127.52c-4.59-2.73-9.17-5.47-13.76-8.2v-15.52c4.62,2.65,9.23,5.29,13.85,7.94-.03,5.26-.06,10.52-.09,15.79Z"/>
        <path class="cls-11" d="M317.19,119.17c-4.65,2.79-9.29,5.57-13.94,8.36,.03-5.26,.06-10.52,.09-15.79,4.67-2.61,9.34-5.22,14.01-7.83-.05,5.09-.1,10.17-.15,15.26Z"/>
      </g>
      <g>
        <path class="cls-1" d="M287.76,119.36c-3.02,1.82-6.03,3.63-9.05,5.45,3.01,1.73,6.02,3.45,9.03,5.18,3.05-1.7,6.09-3.4,9.14-5.11-3.04-1.84-6.08-3.68-9.13-5.52Z"/>
        <path class="cls-13" d="M287.7,138.48c-.42-.45-.84-.9-1.26-1.35-.02,5.58-.05,11.16-.07,16.74l1.36,.68c0-5.36-.02-10.71-.03-16.07Z"/>
        <path class="cls-10" d="M288.97,138.54c-.42-.14-.85-.27-1.27-.41,0,5.47,.02,10.94,.03,16.41,.41-.21,.83-.42,1.24-.63v-15.37Z"/>
        <path class="cls-8" d="M287.69,140.29c-2.99-1.78-5.98-3.57-8.98-5.35v-10.13c3.01,1.73,6.02,3.45,9.03,5.18-.02,3.43-.04,6.87-.06,10.3Z"/>
        <path class="cls-11" d="M296.79,134.84c-3.03,1.82-6.06,3.63-9.1,5.45,.02-3.43,.04-6.87,.06-10.3,3.05-1.7,6.09-3.4,9.14-5.11-.03,3.32-.07,6.64-.1,9.96Z"/>
      </g>
      <path class="cls-2" d="M237.61,52.5c-.86-.12-1.73-.24-2.59-.36"/>
      <g>
        <path class="cls-2" d="M186.48,123.88c-19.45-11.29-38.89-22.59-58.34-33.88,.06-15.55,.11-31.11,.17-46.66,19.32,11.16,38.65,22.32,57.97,33.48,.07,15.69,.13,31.37,.2,47.06Z"/>
        <path class="cls-4" d="M216.42,106.59c-9.98,5.76-19.96,11.53-29.93,17.29-.07-15.69-.13-31.37-.2-47.06,9.97-5.65,19.95-11.31,29.92-16.96l.21,46.73Z"/>
        <path class="cls-6" d="M186.29,76.83c-19.32-11.16-38.65-22.32-57.97-33.48,10.05-5.76,20.09-11.53,30.14-17.29,19.25,11.27,38.5,22.54,57.75,33.81-9.97,5.65-19.95,11.31-29.92,16.96Z"/>
        <g>
          <g>
            <polyline class="cls-6" points="118.99 38.62 119 38.62 119 38.62"/>
            <path class="cls-6" d="M197.54,38.64c-13.04,7.33-26.08,14.66-39.12,21.99-13.14-7.34-26.28-14.67-39.41-22.01l39.14-22.03c13.13,7.35,26.27,14.7,39.4,22.05Z"/>
            <path class="cls-4" d="M197.56,39.94l-39.14,21.98v-1.3c13.04-7.33,26.08-14.66,39.12-21.99l.02,1.3Z"/>
            <path class="cls-2" d="M158.42,61.93c-13.14-7.34-26.28-14.67-39.42-22.01v-1.3c13.14,7.34,26.27,14.67,39.41,22.01v1.3Z"/>
            <path class="cls-6" d="M197.56,38.65s-.01,0-.02-.01"/>
          </g>
          <g>
            <polyline class="cls-6" points="146.88 54.15 146.88 54.15 146.88 54.15"/>
            <path class="cls-6" d="M225.42,54.17c-13.04,7.33-26.08,14.66-39.12,21.99-13.14-7.34-26.28-14.67-39.41-22.01l39.14-22.03c13.13,7.35,26.27,14.7,39.4,22.05Z"/>
            <path class="cls-4" d="M225.44,55.47l-39.14,21.98v-1.3c13.04-7.33,26.08-14.66,39.12-21.99l.02,1.3Z"/>
            <path class="cls-2" d="M186.3,77.45c-13.14-7.34-26.28-14.67-39.42-22.01v-1.3c13.14,7.34,26.27,14.67,39.41,22.01v1.3Z"/>
            <path class="cls-6" d="M225.44,54.18s-.01,0-.02-.01"/>
          </g>
        </g>
        <g>
          <path class="cls-2" d="M185.51,71.27h0s-58.01-33.5-58.01-33.5c0-1.69,.01-3.37,.02-5.06,19.32,11.16,38.64,22.32,57.97,33.48,0,1.7,.01,3.39,.02,5.08Z"/>
          <path class="cls-4" d="M215.43,54.31l-29.92,16.96c0-1.7-.01-3.39-.02-5.08,9.97-5.65,19.95-11.31,29.92-16.96,0,1.7,.02,3.39,.02,5.08Z"/>
          <path class="cls-6" d="M185.49,66.19c-19.32-11.16-38.65-22.32-57.97-33.48,10.05-5.76,20.09-11.53,30.14-17.29,19.25,11.27,38.5,22.54,57.75,33.81-9.97,5.65-19.95,11.31-29.92,16.96Z"/>
          <line class="cls-16" x1="127.5" y1="37.77" x2="127.35" y2="37.68"/>
        </g>
        <g>
          <polygon class="cls-12" points="191.69 86.59 191.69 90.79 197.79 94.36 197.79 83.47 194.53 82.35 191.69 86.59"/>
          <polygon class="cls-9" points="191.69 90.79 191.69 97.98 197.79 94.36 191.69 90.79"/>
        </g>
        <g>
          <polygon class="cls-12" points="199.93 82.07 199.93 86.27 206.03 89.84 206.03 78.95 202.77 77.82 199.93 82.07"/>
          <polygon class="cls-9" points="199.93 86.27 199.93 93.46 206.03 89.84 199.93 86.27"/>
        </g>
        <g>
          <polygon class="cls-12" points="208.17 77.54 208.17 81.75 214.28 85.32 214.28 74.42 211.02 73.3 208.17 77.54"/>
          <polygon class="cls-9" points="208.17 81.75 208.17 88.94 214.28 85.32 208.17 81.75"/>
        </g>
        <path class="cls-2" d="M216.42,96.39c-9.98,5.76-19.96,11.53-29.93,17.29,0-.44,0-.87,0-1.31,9.98-5.75,19.96-11.49,29.93-17.24,0,.42,0,.84,0,1.26Z"/>
        <path class="cls-2" d="M216.42,97.92c-9.98,5.76-19.96,11.53-29.93,17.29,0-.44,0-.87,0-1.31,9.98-5.75,19.96-11.49,29.93-17.24,0,.42,0,.84,0,1.26Z"/>
        <path class="cls-4" d="M156.5,96.41c9.98,5.76,19.96,11.53,29.93,17.29,0-.44,0-.87,0-1.31-9.98-5.75-19.96-11.49-29.93-17.24,0,.42,0,.84,0,1.26Z"/>
        <path class="cls-4" d="M156.5,97.94c9.98,5.76,19.96,11.53,29.93,17.29,0-.44,0-.87,0-1.31-9.98-5.75-19.96-11.49-29.93-17.24,0,.42,0,.84,0,1.26Z"/>
        <path class="cls-4" d="M128.36,80.18c9.98,5.76,19.96,11.53,29.93,17.29,0-.44,0-.87,0-1.31-9.98-5.75-19.96-11.49-29.93-17.24,0,.42,0,.84,0,1.26Z"/>
        <path class="cls-4" d="M128.36,81.71c9.98,5.76,19.96,11.53,29.93,17.29,0-.44,0-.87,0-1.31-9.98-5.75-19.96-11.49-29.93-17.24,0,.42,0,.84,0,1.26Z"/>
        <g>
          <polygon class="cls-12" points="160.97 87.63 160.97 95.54 149.5 102.25 149.5 81.77 155.62 79.65 160.97 87.63"/>
          <polygon class="cls-9" points="160.97 95.54 160.97 109.06 149.5 102.25 160.97 95.54"/>
        </g>
      </g>
      <g>
        <g>
          <g>
            <polyline class="cls-22" points="51.79 101.27 51.79 101.27 51.79 101.27"/>
            <path class="cls-6" d="M81.91,101.28c-5,2.98-10,5.96-15.01,8.95-5.04-2.98-10.08-5.97-15.12-8.95l15.01-8.97c5.04,2.99,10.07,5.98,15.11,8.97Z"/>
            <path class="cls-4" d="M81.92,101.81l-15.01,8.94v-.53c5-2.98,10-5.96,15-8.95v.53Z"/>
            <path class="cls-2" d="M66.91,110.76c-5.04-2.98-10.08-5.97-15.12-8.95v-.53c5.04,2.98,10.08,5.97,15.12,8.95v.53Z"/>
            <path class="cls-21" d="M81.92,101.29s0,0,0,0"/>
          </g>
          <g>
            <polyline class="cls-22" points="51.78 100.75 51.78 100.75 51.79 100.75"/>
            <path class="cls-6" d="M81.91,100.75c-5,2.98-10,5.96-15.01,8.95-5.04-2.98-10.08-5.97-15.12-8.95l15.01-8.97c5.04,2.99,10.07,5.98,15.11,8.97Z"/>
            <path class="cls-7" d="M81.92,101.28l-15.01,8.94v-.53c5-2.98,10-5.96,15-8.95v.53Z"/>
            <path class="cls-2" d="M66.91,110.23c-5.04-2.98-10.08-5.97-15.12-8.95v-.53c5.04,2.98,10.08,5.97,15.12,8.95v.53Z"/>
            <path class="cls-21" d="M81.92,100.76s0,0,0,0"/>
          </g>
        </g>
        <g>
          <path class="cls-7" d="M68.63,107.41c-.68,.5-1.36,1-2.04,1.51-.02-18.54-.03-37.09-.05-55.63,.69-.47,1.37-.94,2.06-1.41,.01,18.51,.02,37.02,.04,55.53Z"/>
          <path class="cls-2" d="M64.47,107.13c.7,.53,1.41,1.07,2.11,1.6-.02-18.54-.03-37.09-.05-55.63-.69-.47-1.37-.94-2.06-1.41,0,18.48,0,36.96,0,55.44Z"/>
        </g>
        <g>
          <path class="cls-7" d="M79.46,100.62c-.66,.5-1.33,1-1.99,1.51-.02-18.54-.03-37.09-.05-55.63,.67-.47,1.33-.94,2-1.41,.01,18.51,.02,37.02,.04,55.53Z"/>
          <path class="cls-2" d="M75.42,100.53c.68,.53,1.37,1.07,2.05,1.6-.02-18.54-.03-37.09-.05-55.63-.67-.47-1.34-.94-2.01-1.41,0,18.48,0,36.96,0,55.44Z"/>
        </g>
        <g>
          <path class="cls-7" d="M58.01,100.99c-.69,.5-1.37,1-2.06,1.51-.02-18.54-.03-37.09-.05-55.63,.69-.47,1.38-.94,2.07-1.41,.01,18.51,.02,37.02,.04,55.53Z"/>
          <path class="cls-2" d="M53.82,100.9c.71,.53,1.42,1.07,2.12,1.6-.02-18.54-.03-37.09-.05-55.63-.69-.47-1.38-.94-2.08-1.41,0,18.48,0,36.96,0,55.44Z"/>
        </g>
        <g>
          <g>
            <polyline class="cls-22" points="51.82 47.13 51.82 47.13 51.82 47.13"/>
            <path class="cls-6" d="M81.95,47.13c-5,2.98-10,5.96-15.01,8.95-5.04-2.98-10.08-5.97-15.12-8.95l15.01-8.97c5.04,2.99,10.07,5.98,15.11,8.97Z"/>
            <path class="cls-4" d="M81.96,47.66l-15.01,8.94v-.53c5-2.98,10-5.96,15-8.95v.53Z"/>
            <path class="cls-2" d="M66.94,56.61c-5.04-2.98-10.08-5.97-15.12-8.95v-.53c5.04,2.98,10.08,5.97,15.12,8.95v.53Z"/>
            <path class="cls-21" d="M81.96,47.14s0,0,0,0"/>
          </g>
          <g>
            <polyline class="cls-22" points="51.82 46.6 51.82 46.6 51.82 46.6"/>
            <path class="cls-6" d="M81.94,46.61c-5,2.98-10,5.96-15.01,8.95-5.04-2.98-10.08-5.97-15.12-8.95l15.01-8.97c5.04,2.99,10.07,5.98,15.11,8.97Z"/>
            <path class="cls-7" d="M81.95,47.14l-15.01,8.94v-.53c5-2.98,10-5.96,15-8.95v.53Z"/>
            <path class="cls-2" d="M66.94,56.08c-5.04-2.98-10.08-5.97-15.12-8.95v-.53c5.04,2.98,10.08,5.97,15.12,8.95v.53Z"/>
            <path class="cls-21" d="M81.95,46.61s0,0,0,0"/>
          </g>
        </g>
        <path class="cls-4" d="M79.05,47.29c-4.12,2.35-8.25,4.69-12.37,7.04-.02-1.38-.03-2.77-.05-4.15,4.13-2.38,8.26-4.76,12.39-7.14,.01,1.42,.02,2.84,.03,4.26Z"/>
        <path class="cls-2" d="M66.68,54.33c-3.93-2.32-7.86-4.65-11.79-6.97-.02-1.46-.04-2.92-.06-4.37,3.93,2.4,7.87,4.79,11.8,7.19,.02,1.38,.03,2.77,.05,4.15Z"/>
        <path class="cls-6" d="M66.63,50.18c-3.93-2.4-7.87-4.79-11.8-7.19,4.01-2.38,8.03-4.76,12.04-7.14,4.05,2.4,8.1,4.79,12.15,7.19-4.13,2.38-8.26,4.76-12.39,7.14Z"/>
      </g>
      <g>
        <g>
          <g>
            <polyline class="cls-22" points="177.66 182.15 177.66 182.15 177.67 182.15"/>
            <path class="cls-6" d="M207.79,182.15c-5,2.98-10,5.96-15.01,8.95-5.04-2.98-10.08-5.97-15.12-8.95l15.01-8.97c5.04,2.99,10.07,5.98,15.11,8.97Z"/>
            <path class="cls-4" d="M207.8,182.68l-15.01,8.94v-.53c5-2.98,10-5.96,15-8.95v.53Z"/>
            <path class="cls-2" d="M192.79,191.63c-5.04-2.98-10.08-5.97-15.12-8.95v-.53c5.04,2.98,10.08,5.97,15.12,8.95v.53Z"/>
            <path class="cls-21" d="M207.8,182.16s0,0,0,0"/>
          </g>
          <g>
            <polyline class="cls-22" points="177.66 181.62 177.66 181.62 177.66 181.62"/>
            <path class="cls-6" d="M207.79,181.62c-5,2.98-10,5.96-15.01,8.95-5.04-2.98-10.08-5.97-15.12-8.95l15.01-8.97c5.04,2.99,10.07,5.98,15.11,8.97Z"/>
            <path class="cls-7" d="M207.8,182.15l-15.01,8.94v-.53c5-2.98,10-5.96,15-8.95v.53Z"/>
            <path class="cls-2" d="M192.78,191.1c-5.04-2.98-10.08-5.97-15.12-8.95v-.53c5.04,2.98,10.08,5.97,15.12,8.95v.53Z"/>
            <path class="cls-21" d="M207.8,181.63s0,0,0,0"/>
          </g>
        </g>
        <g>
          <path class="cls-7" d="M194.5,188.28c-.68,.5-1.36,1-2.04,1.51-.02-18.54-.03-37.09-.05-55.63,.69-.47,1.37-.94,2.06-1.41,.01,18.51,.02,37.02,.04,55.53Z"/>
          <path class="cls-2" d="M190.35,188c.7,.53,1.41,1.07,2.11,1.6-.02-18.54-.03-37.09-.05-55.63-.69-.47-1.37-.94-2.06-1.41,0,18.48,0,36.96,0,55.44Z"/>
        </g>
        <g>
          <path class="cls-7" d="M205.34,181.49c-.66,.5-1.33,1-1.99,1.51-.02-18.54-.03-37.09-.05-55.63,.67-.47,1.33-.94,2-1.41,.01,18.51,.02,37.02,.04,55.53Z"/>
          <path class="cls-2" d="M201.3,181.4c.68,.53,1.37,1.07,2.05,1.6-.02-18.54-.03-37.09-.05-55.63-.67-.47-1.34-.94-2.01-1.41,0,18.48,0,36.96,0,55.44Z"/>
        </g>
        <g>
          <path class="cls-7" d="M183.88,181.86c-.69,.5-1.37,1-2.06,1.51-.02-18.54-.03-37.09-.05-55.63,.69-.47,1.38-.94,2.07-1.41,.01,18.51,.02,37.02,.04,55.53Z"/>
          <path class="cls-2" d="M179.7,181.77c.71,.53,1.42,1.07,2.12,1.6-.02-18.54-.03-37.09-.05-55.63-.69-.47-1.38-.94-2.08-1.41,0,18.48,0,36.96,0,55.44Z"/>
        </g>
        <g>
          <g>
            <polyline class="cls-22" points="177.7 128 177.7 128 177.7 128"/>
            <path class="cls-6" d="M207.83,128.01c-5,2.98-10,5.96-15.01,8.95-5.04-2.98-10.08-5.97-15.12-8.95l15.01-8.97c5.04,2.99,10.07,5.98,15.11,8.97Z"/>
            <path class="cls-4" d="M207.83,128.54l-15.01,8.94v-.53c5-2.98,10-5.96,15-8.95v.53Z"/>
            <path class="cls-2" d="M192.82,137.48c-5.04-2.98-10.08-5.97-15.12-8.95v-.53c5.04,2.98,10.08,5.97,15.12,8.95v.53Z"/>
            <path class="cls-21" d="M207.83,128.01s0,0,0,0"/>
          </g>
          <g>
            <polyline class="cls-22" points="177.7 127.47 177.7 127.47 177.7 127.47"/>
            <path class="cls-6" d="M207.82,127.48c-5,2.98-10,5.96-15.01,8.95-5.04-2.98-10.08-5.97-15.12-8.95l15.01-8.97c5.04,2.99,10.07,5.98,15.11,8.97Z"/>
            <path class="cls-7" d="M207.83,128.01l-15.01,8.94v-.53c5-2.98,10-5.96,15-8.95v.53Z"/>
            <path class="cls-2" d="M192.82,136.95c-5.04-2.98-10.08-5.97-15.12-8.95v-.53c5.04,2.98,10.08,5.97,15.12,8.95v.53Z"/>
            <path class="cls-21" d="M207.83,127.48s0,0,0,0"/>
          </g>
        </g>
        <path class="cls-4" d="M204.93,128.16c-4.12,2.35-8.25,4.69-12.37,7.04-.02-1.38-.03-2.77-.05-4.15,4.13-2.38,8.26-4.76,12.39-7.14,.01,1.42,.02,2.84,.03,4.26Z"/>
        <path class="cls-2" d="M192.56,135.2c-3.93-2.32-7.86-4.65-11.79-6.97-.02-1.46-.04-2.92-.06-4.37,3.93,2.4,7.87,4.79,11.8,7.19,.02,1.38,.03,2.77,.05,4.15Z"/>
        <path class="cls-6" d="M192.51,131.05c-3.93-2.4-7.87-4.79-11.8-7.19,4.01-2.38,8.03-4.76,12.04-7.14,4.05,2.4,8.1,4.79,12.15,7.19-4.13,2.38-8.26,4.76-12.39,7.14Z"/>
      </g>
      <g>
        <path class="cls-1" d="M90.55,0c-3.7,2.23-7.39,4.45-11.09,6.68,3.69,2.12,7.38,4.23,11.07,6.35,3.73-2.09,7.47-4.17,11.2-6.26-3.73-2.26-7.46-4.51-11.19-6.77Z"/>
        <path class="cls-13" d="M90.47,23.43c-.51-.55-1.03-1.11-1.54-1.66-.03,6.84-.06,13.68-.09,20.52l1.67,.83c-.01-6.56-.02-13.13-.04-19.69Z"/>
        <path class="cls-10" d="M92.03,23.51c-.52-.17-1.04-.33-1.55-.5,.01,6.7,.02,13.41,.03,20.11,.51-.26,1.01-.51,1.52-.77V23.51Z"/>
        <path class="cls-8" d="M90.46,25.65c-3.67-2.19-7.34-4.37-11-6.56V6.68c3.69,2.12,7.38,4.23,11.07,6.35-.02,4.21-.05,8.42-.07,12.62Z"/>
        <path class="cls-11" d="M101.61,18.97c-3.72,2.23-7.43,4.45-11.15,6.68,.02-4.21,.05-8.42,.07-12.62,3.73-2.09,7.47-4.17,11.2-6.26-.04,4.07-.08,8.13-.12,12.2Z"/>
      </g>
      <g>
        <path class="cls-1" d="M111.93,2.57c-4.62,2.78-9.24,5.57-13.87,8.35,4.62,2.65,9.23,5.29,13.85,7.94,4.67-2.61,9.34-5.22,14.01-7.83-4.66-2.82-9.32-5.64-13.99-8.46Z"/>
        <path class="cls-13" d="M111.84,31.86c-.64-.69-1.29-1.38-1.93-2.07-.04,8.55-.07,17.11-.11,25.66l2.08,1.04c-.01-8.21-.03-16.42-.04-24.63Z"/>
        <path class="cls-10" d="M113.79,31.97c-.65-.21-1.3-.42-1.94-.63,.01,8.38,.03,16.77,.04,25.15,.63-.32,1.27-.64,1.9-.96V31.97Z"/>
        <path class="cls-8" d="M111.82,34.64c-4.59-2.73-9.17-5.47-13.76-8.2V10.92c4.62,2.65,9.23,5.29,13.85,7.94-.03,5.26-.06,10.52-.09,15.79Z"/>
        <path class="cls-11" d="M125.76,26.29c-4.65,2.79-9.29,5.57-13.94,8.36,.03-5.26,.06-10.52,.09-15.79,4.67-2.61,9.34-5.22,14.01-7.83-.05,5.09-.1,10.17-.15,15.26Z"/>
      </g>
      <g>
        <path class="cls-1" d="M96.33,26.48c-3.02,1.82-6.03,3.63-9.05,5.45,3.01,1.73,6.02,3.45,9.03,5.18,3.05-1.7,6.09-3.4,9.14-5.11-3.04-1.84-6.08-3.68-9.13-5.52Z"/>
        <path class="cls-13" d="M96.27,45.6c-.42-.45-.84-.9-1.26-1.35-.02,5.58-.05,11.16-.07,16.74l1.36,.68c0-5.36-.02-10.71-.03-16.07Z"/>
        <path class="cls-10" d="M97.54,45.67c-.42-.14-.85-.27-1.27-.41,0,5.47,.02,10.94,.03,16.41,.41-.21,.83-.42,1.24-.63v-15.37Z"/>
        <path class="cls-8" d="M96.26,47.41c-2.99-1.78-5.98-3.57-8.98-5.35v-10.13c3.01,1.73,6.02,3.45,9.03,5.18-.02,3.43-.04,6.87-.06,10.3Z"/>
        <path class="cls-11" d="M105.36,41.96c-3.03,1.82-6.06,3.63-9.1,5.45,.02-3.43,.04-6.87,.06-10.3,3.05-1.7,6.09-3.4,9.14-5.11-.03,3.32-.07,6.64-.1,9.96Z"/>
      </g>
      <g>
        <path class="cls-1" d="M11.09,66.63c-3.7,2.23-7.39,4.45-11.09,6.68,3.69,2.12,7.38,4.23,11.07,6.35,3.73-2.09,7.47-4.17,11.2-6.26-3.73-2.26-7.46-4.51-11.19-6.77Z"/>
        <path class="cls-13" d="M11.02,90.06c-.51-.55-1.03-1.11-1.54-1.66-.03,6.84-.06,13.68-.09,20.52l1.67,.83c-.01-6.56-.02-13.13-.04-19.69Z"/>
        <path class="cls-10" d="M12.57,90.14c-.52-.17-1.04-.33-1.55-.5,.01,6.7,.02,13.41,.03,20.11,.51-.26,1.01-.51,1.52-.77v-18.84Z"/>
        <path class="cls-8" d="M11,92.28c-3.67-2.19-7.34-4.37-11-6.56v-12.41c3.69,2.12,7.38,4.23,11.07,6.35-.02,4.21-.05,8.42-.07,12.62Z"/>
        <path class="cls-11" d="M22.15,85.6c-3.72,2.23-7.43,4.45-11.15,6.68,.02-4.21,.05-8.42,.07-12.62,3.73-2.09,7.47-4.17,11.2-6.26-.04,4.07-.08,8.13-.12,12.2Z"/>
      </g>
      <g>
        <path class="cls-1" d="M32.47,69.2c-4.62,2.78-9.24,5.57-13.87,8.35,4.62,2.65,9.23,5.29,13.85,7.94,4.67-2.61,9.34-5.22,14.01-7.83-4.66-2.82-9.32-5.64-13.99-8.46Z"/>
        <path class="cls-13" d="M32.38,98.5c-.64-.69-1.29-1.38-1.93-2.07-.04,8.55-.07,17.11-.11,25.66l2.08,1.04c-.01-8.21-.03-16.42-.04-24.63Z"/>
        <path class="cls-10" d="M34.33,98.6c-.65-.21-1.3-.42-1.94-.63,.01,8.38,.03,16.77,.04,25.15,.63-.32,1.27-.64,1.9-.96v-23.56Z"/>
        <path class="cls-8" d="M32.36,101.28c-4.59-2.73-9.17-5.47-13.76-8.2v-15.52c4.62,2.65,9.23,5.29,13.85,7.94-.03,5.26-.06,10.52-.09,15.79Z"/>
        <path class="cls-11" d="M46.3,92.92c-4.65,2.79-9.29,5.57-13.94,8.36,.03-5.26,.06-10.52,.09-15.79,4.67-2.61,9.34-5.22,14.01-7.83-.05,5.09-.1,10.17-.15,15.26Z"/>
      </g>
      <g>
        <path class="cls-1" d="M16.87,93.12c-3.02,1.82-6.03,3.63-9.05,5.45,3.01,1.73,6.02,3.45,9.03,5.18,3.05-1.7,6.09-3.4,9.14-5.11-3.04-1.84-6.08-3.68-9.13-5.52Z"/>
        <path class="cls-13" d="M16.81,112.23c-.42-.45-.84-.9-1.26-1.35-.02,5.58-.05,11.16-.07,16.74l1.36,.68c0-5.36-.02-10.71-.03-16.07Z"/>
        <path class="cls-10" d="M18.08,112.3c-.42-.14-.85-.27-1.27-.41,0,5.47,.02,10.94,.03,16.41,.41-.21,.83-.42,1.24-.63v-15.37Z"/>
        <path class="cls-8" d="M16.8,114.05c-2.99-1.78-5.98-3.57-8.98-5.35v-10.13c3.01,1.73,6.02,3.45,9.03,5.18-.02,3.43-.04,6.87-.06,10.3Z"/>
        <path class="cls-11" d="M25.9,108.6c-3.03,1.82-6.06,3.63-9.1,5.45,.02-3.43,.04-6.87,.06-10.3,3.05-1.7,6.09-3.4,9.14-5.11-.03,3.32-.07,6.64-.1,9.96Z"/>
      </g>
      <g>
        <path class="cls-1" d="M130.04,135.2c-3.7,2.23-7.39,4.45-11.09,6.68,3.69,2.12,7.38,4.23,11.07,6.35,3.73-2.09,7.47-4.17,11.2-6.26-3.73-2.26-7.46-4.51-11.19-6.77Z"/>
        <path class="cls-13" d="M129.96,158.63c-.51-.55-1.03-1.11-1.54-1.66-.03,6.84-.06,13.68-.09,20.52l1.67,.83c-.01-6.56-.02-13.13-.04-19.69Z"/>
        <path class="cls-10" d="M131.52,158.71c-.52-.17-1.04-.33-1.55-.5,.01,6.7,.02,13.41,.03,20.11,.51-.26,1.01-.51,1.52-.77v-18.84Z"/>
        <path class="cls-8" d="M129.95,160.85c-3.67-2.19-7.34-4.37-11-6.56v-12.41c3.69,2.12,7.38,4.23,11.07,6.35-.02,4.21-.05,8.42-.07,12.62Z"/>
        <path class="cls-11" d="M141.1,154.17c-3.72,2.23-7.43,4.45-11.15,6.68,.02-4.21,.05-8.42,.07-12.62,3.73-2.09,7.47-4.17,11.2-6.26-.04,4.07-.08,8.13-.12,12.2Z"/>
      </g>
      <g>
        <path class="cls-1" d="M151.42,137.77c-4.62,2.78-9.24,5.57-13.87,8.35,4.62,2.65,9.23,5.29,13.85,7.94,4.67-2.61,9.34-5.22,14.01-7.83-4.66-2.82-9.32-5.64-13.99-8.46Z"/>
        <path class="cls-13" d="M151.33,167.07c-.64-.69-1.29-1.38-1.93-2.07-.04,8.55-.07,17.11-.11,25.66l2.08,1.04c-.01-8.21-.03-16.42-.04-24.63Z"/>
        <path class="cls-10" d="M153.27,167.17c-.65-.21-1.3-.42-1.94-.63,.01,8.38,.03,16.77,.04,25.15,.63-.32,1.27-.64,1.9-.96v-23.56Z"/>
        <path class="cls-8" d="M151.31,169.85c-4.59-2.73-9.17-5.47-13.76-8.2v-15.52c4.62,2.65,9.23,5.29,13.85,7.94-.03,5.26-.06,10.52-.09,15.79Z"/>
        <path class="cls-11" d="M165.25,161.49c-4.65,2.79-9.29,5.57-13.94,8.36,.03-5.26,.06-10.52,.09-15.79,4.67-2.61,9.34-5.22,14.01-7.83-.05,5.09-.1,10.17-.15,15.26Z"/>
      </g>
      <g>
        <path class="cls-1" d="M135.82,161.69c-3.02,1.82-6.03,3.63-9.05,5.45,3.01,1.73,6.02,3.45,9.03,5.18,3.05-1.7,6.09-3.4,9.14-5.11-3.04-1.84-6.08-3.68-9.13-5.52Z"/>
        <path class="cls-13" d="M135.76,180.8c-.42-.45-.84-.9-1.26-1.35-.02,5.58-.05,11.16-.07,16.74l1.36,.68c0-5.36-.02-10.71-.03-16.07Z"/>
        <path class="cls-10" d="M137.03,180.87c-.42-.14-.85-.27-1.27-.41,0,5.47,.02,10.94,.03,16.41,.41-.21,.83-.42,1.24-.63v-15.37Z"/>
        <path class="cls-8" d="M135.75,182.61c-2.99-1.78-5.98-3.57-8.98-5.35v-10.13c3.01,1.73,6.02,3.45,9.03,5.18-.02,3.43-.04,6.87-.06,10.3Z"/>
        <path class="cls-11" d="M144.84,177.16c-3.03,1.82-6.06,3.63-9.1,5.45,.02-3.43,.04-6.87,.06-10.3,3.05-1.7,6.09-3.4,9.14-5.11-.03,3.32-.07,6.64-.1,9.96Z"/>
      </g>
    </g>
  </g>
</svg>