<?xml version="1.0" encoding="utf-8"?>
<!-- Generator: Adobe Illustrator 26.0.1, SVG Export Plug-In . SVG Version: 6.00 Build 0)  -->
<svg version="1.1" id="Layer_1" xmlns="http://www.w3.org/2000/svg" xmlns:xlink="http://www.w3.org/1999/xlink" x="0px" y="0px"
	 viewBox="0 0 800 800" style="enable-background:new 0 0 800 800;" xml:space="preserve">
<style type="text/css">
	.st0{fill:#326CE4;}
	.st1{fill:#FFFFFF;}
	.st2{opacity:0.17;}
	.st3{fill:#FFFFFF;stroke:#326CE4;stroke-width:2.3651;stroke-miterlimit:10;}
	.st4{fill:#FFFFFF;stroke:#FFFFFF;stroke-width:0.2787;stroke-miterlimit:10;}
	.st5{opacity:0.39;}
	.st6{fill:#ACABB1;}
	.st7{opacity:0.3;}
	.st8{fill:#E5CD80;}
</style>
<g>
	<path class="st0" d="M408.09,71.3v657.42H298.87c-32.6,0-63.42-14.84-83.75-40.33L88.89,530.11
		c-20.33-25.49-27.93-58.84-20.68-90.62l45.05-197.38c7.26-31.78,28.58-58.53,57.96-72.68L353.62,81.6
		C370.77,73.34,389.57,69.91,408.09,71.3z"/>
	<path class="st1" d="M710.9,530.29L584.68,688.65C564.35,714.15,533.52,729,500.92,729h-93.23V71.27
		c13.2,0.97,26.27,4.41,38.49,10.3l182.39,87.87c29.38,14.16,50.72,40.92,57.96,72.72l45.05,197.47
		C738.84,471.43,731.23,504.79,710.9,530.29z"/>
	<g class="st2">
		<defs>
			<path id="SVGID_1_" class="st2" d="M711.11,530.09L584.88,688.37c-20.33,25.49-51.16,40.33-83.75,40.33h-92.83v0.3H299.07
				c-32.6,0-63.42-14.84-83.75-40.33L89.09,530.38c-20.33-25.49-27.93-58.84-20.68-90.62l45.05-197.38
				c7.26-31.78,28.58-58.53,57.96-72.68l182.39-87.83c17.02-8.19,35.68-11.64,54.07-10.32v-0.27c13.2,0.97,26.27,4.4,38.49,10.29
				l182.39,87.83c29.38,14.15,50.72,40.9,57.96,72.68l45.05,197.38C739.04,471.25,731.43,504.59,711.11,530.09z"/>
		</defs>
		<clipPath id="SVGID_00000011026047143050600060000001619051336378332591_">
			<use xlink:href="#SVGID_1_"  style="overflow:visible;"/>
		</clipPath>
	</g>
	<g>
		<path class="st1" d="M400.1,109.38c-9.58,0.74-18.96,2.72-27.73,6.14c-7.44,2.6-18.23,9.11-25.34,12.9
			c-16.83,9.22-33.72,18.29-50.64,27.32c-29.54,15.71-59.42,31.33-89.19,46.64c-6.07,3.04-11.64,6.16-16.96,10.22
			c-16.09,12.24-27.56,30.36-31.6,50.17c-11.18,52.51-24.35,112.35-36.45,164.87c-0.85,3.71-2.26,9.64-2.95,13.34
			c-3.49,20.54,0.94,42.39,12.58,59.72c2.02,3.22,5.69,7.7,8.02,10.77c34.83,44.7,70.65,91.57,104.63,136.98
			c3.98,5.2,8.59,10.08,13.66,14.23c12.84,10.73,28.83,17.68,45.43,19.8c2.77,0.5,4.18,0.37,6.76,0.64
			c29.93,1.45,59.86,2.92,89.77,5.09c-19.16,1.36-38.32,2.51-57.48,3.48c-12.05,0.57-24.1,1.37-36.16,1.61
			c-7.63-0.03-15.23-0.98-22.66-2.73c-14.97-3.62-29.17-10.82-40.95-20.76c-5.78-4.84-11.03-10.71-15.85-16.48
			c-35.25-41.53-71.26-84.89-105.7-127.08c-1.71-2.01-5.49-6.75-7.03-8.8c-6.48-8.64-11.55-18.35-15.13-28.54
			c-6.25-17.9-7.53-37.51-3.64-56.07c1.33-6.45,4.09-18.22,5.54-24.77c11.03-47.6,23.91-103.19,35.53-150.34
			c5.98-24.68,21.02-46.91,42-61.29c4.29-2.97,9-5.71,13.7-7.97c32.75-14.95,65.81-29.41,98.81-43.75
			c17.61-7.59,35.24-15.15,52.94-22.56c7.31-2.94,19.36-8.52,27.22-10.24C380.74,109.61,390.52,108.67,400.1,109.38L400.1,109.38z"
			/>
	</g>
	<g>
		<path class="st3" d="M410.28,291.69v42.61l-52.78,10.85l-9.07,1.86c-0.9,0.19-1.43-0.99-0.67-1.54c1.28-0.9,2.66-2.03,3.98-3.4
			c1.72-1.78,3.35-3.96,4.58-6.65c1.21-2.65,3.86-8.36,1.42-13.46c-0.26-0.53-0.54-1.03-0.85-1.49c-1.96-2.88-4.86-4.27-6.25-4.93
			c-4.3-2.03-8.46-1.81-11.02-1.37c-0.76,0.14-1.29-0.75-0.81-1.34c1.24-1.55,3.41-3.56,6.51-3.77c1.24-0.09,2.34,0.14,3.19,0.44
			c0.45,0.15,0.94-0.09,1.08-0.54c0.39-1.27,1.24-3.25,3.19-4.83c3.32-2.7,7.37-2.18,9.22-1.74c0.52,0.12,1.01-0.26,1.03-0.79
			c0.58-15.29,0.3-32.7-1.61-51.76c-0.19-1.89-0.39-3.76-0.61-5.62c-1.58-13.66-3.78-26.23-6.26-37.56
			c-0.05-0.21-0.17-0.39-0.35-0.5c-0.9-0.65-1.81-1.29-2.71-1.92c-0.18-0.14-0.31-0.34-0.34-0.56l-2.39-14.76l-0.05-0.31
			c-0.04-0.26,0.04-0.52,0.22-0.71l1.69-1.77c0.21-0.19,0.28-0.48,0.22-0.75l-1.47-7.21c-0.05-0.21-0.15-0.37-0.32-0.5l-1.58-1.19
			c-0.17-0.13-0.28-0.32-0.32-0.53l-1.46-8.29c-0.05-0.26,0.03-0.53,0.21-0.71l2.53-2.78c0.17-0.18,0.25-0.43,0.22-0.66l-1.85-16.63
			c-0.03-0.23,0.05-0.48,0.22-0.66l2.17-2.36c0.04-0.05,0.08-0.09,0.1-0.14l2.44-0.5c0.04,0.04,0.09,0.06,0.14,0.09l2.93,1.32
			c0.22,0.1,0.39,0.3,0.45,0.53l4.87,16c0.08,0.22,0.25,0.41,0.47,0.52l3.42,1.55c0.23,0.1,0.41,0.32,0.48,0.58l1.92,8.19
			c0.04,0.21,0.01,0.43-0.09,0.62l-0.98,1.7c-0.1,0.18-0.13,0.39-0.09,0.59l1.29,6.25l0.19,0.96c0.05,0.27,0.23,0.5,0.49,0.61
			l2.26,0.94c0.23,0.1,0.41,0.32,0.49,0.58l3.69,14.8c0.06,0.22,0.03,0.45-0.09,0.65c-0.58,0.94-1.16,1.9-1.73,2.84
			c-0.12,0.18-0.16,0.39-0.12,0.59c1.96,10.22,4.52,21.23,7.87,32.91c0.89,3.11,1.83,6.28,2.85,9.48
			c5.76,18.27,12.37,34.38,18.93,48.2c0.22,0.48,0.83,0.63,1.25,0.32C403.97,293.03,406.84,291.34,410.28,291.69z"/>
		<path class="st3" d="M320.13,414.9c0.1-1.57,0.08-3.34-0.17-5.24c-0.32-2.44-1.02-5.08-2.34-7.72c-1.31-2.61-4.12-8.23-9.63-9.51
			c-4.21-0.97-7.85,0.77-9.46,1.55c-4.26,2.09-6.69,5.48-7.94,7.76c-0.37,0.67-1.39,0.54-1.56-0.21c-0.44-1.93-0.65-4.89,1.11-7.43
			c0.71-1.03,1.57-1.74,2.34-2.23c0.4-0.25,0.52-0.79,0.26-1.18c-0.75-1.09-1.77-3-1.79-5.5c-0.03-4.28,2.9-7.12,4.4-8.3
			c0.41-0.32,0.42-0.95,0.03-1.3c-11.59-9.99-25.37-20.63-41.46-31.03c-11.6-7.5-22.78-13.82-33.24-19.16
			c-1.61-0.83-3.21-1.63-4.79-2.4c-0.19-0.09-0.41-0.11-0.61-0.05c-1.07,0.31-2.14,0.61-3.2,0.92c-0.22,0.06-0.45,0.03-0.65-0.08
			l-13.29-7.49c-0.23-0.13-0.38-0.36-0.42-0.63l-0.32-2.42c-0.03-0.28-0.21-0.52-0.45-0.65l-4.9-2.49l-1.66-0.85
			c-0.18-0.09-0.39-0.12-0.59-0.06l-1.91,0.49c-0.2,0.06-0.43,0.03-0.61-0.08l-7.39-4.03c-0.23-0.12-0.39-0.35-0.43-0.61l-0.58-3.71
			c-0.04-0.25-0.18-0.46-0.39-0.58l-14.15-8.93c-0.2-0.13-0.34-0.34-0.38-0.59l-0.5-3.18c-0.01-0.05-0.02-0.11-0.04-0.16l1.13-2.22
			c0.05-0.01,0.1-0.03,0.16-0.06l2.86-1.47c0.22-0.11,0.47-0.12,0.7-0.03l15.54,6.18c0.22,0.09,0.48,0.08,0.7-0.03l3.34-1.71
			c0.23-0.13,0.51-0.13,0.75-0.01l5.64,2.68l1.97,0.93c0.19,0.09,0.34,0.25,0.42,0.45l0.73,1.84c0.08,0.19,0.22,0.34,0.4,0.44
			l6.55,3.34c0.25,0.13,0.54,0.13,0.78-0.01l2.15-1.17c0.23-0.13,0.51-0.14,0.75-0.03l13.88,6.34c0.21,0.09,0.37,0.26,0.45,0.48
			c0.38,1.04,0.76,2.09,1.14,3.13c0.07,0.2,0.21,0.36,0.4,0.46c1.87,0.98,3.78,1.97,5.73,2.95c10.23,5.15,21.59,10.3,34.08,15.11
			c17.88,6.9,34.59,11.78,49.48,15.27c0.51,0.12,1.01-0.25,1.03-0.79c0.07-1.9,0.65-5.95,4.13-8.44c2.03-1.44,4.18-1.76,5.5-1.79
			c0.48-0.01,0.84-0.43,0.8-0.9c-0.05-0.9,0.02-2.02,0.43-3.2c1.02-2.92,3.53-4.48,5.36-5.27c0.71-0.3,1.42,0.44,1.09,1.13
			c-1.11,2.35-2.42,6.3-1.61,10.98c0.31,1.77,1.05,5.72,4.31,8.55c4.27,3.7,10.48,2.67,13.35,2.19c1.5-0.25,2.9-0.63,4.2-1.11
			c3.19-1.15,5.78-2.86,7.76-4.49c0.71-0.59,1.72,0.24,1.31,1.06l-3.31,6.5l-31.54,61.95l-4.2,8.25
			C321.34,416.16,320.07,415.83,320.13,414.9z"/>
		<path class="st3" d="M327.31,495.76c-1.79-0.86-4.23-2.54-5.11-5.5c-0.36-1.2-0.38-2.31-0.29-3.21c0.06-0.47-0.29-0.9-0.76-0.94
			c-1.32-0.09-3.45-0.49-5.42-2.04c-3.36-2.64-3.76-6.71-3.75-8.61c0.01-0.53-0.47-0.93-0.99-0.83
			c-15.03,2.83-31.95,6.96-50.12,13.04c-15.11,5.07-28.66,10.67-40.58,16.27c-0.19,0.09-0.34,0.25-0.42,0.44
			c-0.43,1.03-0.85,2.05-1.28,3.08c-0.09,0.21-0.25,0.37-0.46,0.45l-14.15,5.72c-0.24,0.1-0.52,0.08-0.75-0.06l-2.1-1.26
			c-0.24-0.15-0.53-0.16-0.78-0.04l-5.62,2.55l-1.08,0.49c-0.19,0.09-0.33,0.23-0.42,0.42l-0.82,1.8c-0.08,0.19-0.25,0.35-0.44,0.43
			l-7.76,3.27c-0.24,0.1-0.52,0.09-0.74-0.04l-2.71-1.55l-0.56-0.32c-0.21-0.12-0.47-0.14-0.69-0.06l-15.8,5.49
			c-0.23,0.08-0.49,0.06-0.7-0.07l-2.79-1.6c-0.05-0.02-0.1-0.05-0.15-0.07l-1.03-2.27c0.02-0.05,0.04-0.1,0.05-0.16l0.64-3.15
			c0.05-0.24,0.2-0.45,0.41-0.56l14.53-8.29c0.21-0.12,0.36-0.33,0.41-0.56l0.28-1.36l0.47-2.32c0.05-0.26,0.22-0.48,0.45-0.59
			l7.57-3.69c0.19-0.09,0.41-0.11,0.61-0.05l1.89,0.57c0.2,0.06,0.4,0.04,0.59-0.04l6.7-3.04c0.25-0.11,0.44-0.34,0.48-0.61
			l0.43-2.41c0.05-0.26,0.21-0.49,0.45-0.61l2.46-1.25l11.15-5.64c0.2-0.11,0.44-0.12,0.65-0.05c1.05,0.36,2.11,0.71,3.16,1.06
			c0.2,0.07,0.41,0.06,0.61-0.03c12.06-5.28,25.2-11.79,38.96-19.84c16.55-9.67,30.79-19.68,42.81-29.14
			c0.42-0.33,0.43-0.95,0.03-1.3c-1.44-1.23-4.25-4.22-4.02-8.49c0.13-2.49,1.23-4.36,2.03-5.42c0.29-0.38,0.19-0.92-0.2-1.19
			c-0.74-0.52-1.57-1.27-2.23-2.33c-1.65-2.62-1.3-5.56-0.78-7.48c0.21-0.74,1.23-0.83,1.57-0.14c1.14,2.33,3.41,5.82,7.58,8.1
			c1.57,0.86,5.12,2.75,9.37,1.97c5.56-1.03,8.63-6.52,10.04-9.07c0.74-1.33,1.32-2.66,1.76-3.97c1.09-3.21,1.38-6.3,1.33-8.86
			c-0.02-0.92,1.26-1.2,1.64-0.36l3.02,6.64l28.74,63.3l3.82,8.42c0.38,0.84-0.66,1.62-1.35,1c-1.17-1.05-2.56-2.14-4.19-3.13
			c-2.11-1.28-4.61-2.38-7.51-2.99c-2.85-0.61-9-1.91-13.43,1.59c-3.39,2.68-4.3,6.61-4.69,8.35c-1.02,4.64,0.12,8.65,1.11,11.04
			C328.75,495.38,328.01,496.09,327.31,495.76z"/>
		<path class="st3" d="M410.28,484.42v41.34c-0.54,0.26-1.14,0.48-1.8,0.63c-4.17,0.98-7.59-1.25-9.07-2.45
			c-0.41-0.32-1.03-0.21-1.28,0.26c-7.17,13.52-14.5,29.32-21.06,47.31c-5.48,14.97-9.54,29.06-12.6,41.87
			c-0.05,0.21-0.01,0.41,0.08,0.59c0.54,0.98,1.07,1.95,1.61,2.92c0.1,0.21,0.13,0.43,0.06,0.65l-4.37,14.63
			c-0.08,0.25-0.26,0.45-0.52,0.54l-2.29,0.85c-0.27,0.09-0.46,0.32-0.53,0.59l-1.8,7.13c-0.06,0.19-0.04,0.4,0.06,0.58l0.89,1.76
			c0.1,0.19,0.12,0.41,0.06,0.62l-2.29,8.11c-0.08,0.25-0.26,0.45-0.5,0.54l-3.49,1.39c-0.23,0.09-0.4,0.27-0.48,0.5l-5.58,15.77
			c-0.08,0.23-0.26,0.41-0.49,0.5l-2.98,1.19c-0.05,0.03-0.1,0.05-0.14,0.08l-2.43-0.61c-0.01-0.05-0.05-0.1-0.09-0.14l-2.05-2.47
			c-0.17-0.18-0.23-0.43-0.19-0.67l2.58-16.53c0.04-0.23-0.03-0.48-0.18-0.67l-2.41-2.88c-0.17-0.19-0.23-0.46-0.17-0.72l1.83-8.21
			c0.04-0.21,0.17-0.4,0.35-0.5l1.63-1.12c0.17-0.12,0.28-0.3,0.34-0.49l1.8-7.13c0.08-0.27,0-0.56-0.18-0.76l-1.61-1.85
			c-0.17-0.19-0.25-0.46-0.19-0.72l3.11-14.94c0.04-0.22,0.18-0.41,0.36-0.54c0.93-0.59,1.87-1.2,2.8-1.8
			c0.18-0.12,0.3-0.3,0.36-0.49c3.4-12.73,6.5-27.06,8.79-42.83c2.76-18.96,3.82-36.34,3.93-51.65c0.01-0.52-0.47-0.92-0.99-0.83
			c-1.86,0.36-5.94,0.68-9.13-2.16c-1.87-1.65-2.65-3.68-2.97-4.96c-0.12-0.46-0.61-0.72-1.06-0.59c-0.87,0.26-1.96,0.44-3.22,0.3
			c-3.07-0.35-5.15-2.45-6.32-4.06c-0.45-0.63,0.1-1.49,0.85-1.32c2.54,0.56,6.69,0.97,11.07-0.87c1.33-0.56,3.99-1.69,6.04-4.12
			c0.49-0.58,0.94-1.24,1.34-1.98c2.66-5,0.28-10.81-0.81-13.51c-0.58-1.41-1.27-2.69-2-3.85c-1.85-2.85-4.08-5.01-6.11-6.57
			c-0.72-0.57-0.15-1.73,0.75-1.51l7.08,1.8L410.28,484.42z"/>
	</g>
	<path class="st4" d="M407.69,307.98v201.44c-19.97,1.01-39.27-3.9-55.83-13.42c-8.91-5.11-17.03-11.57-24.03-19.17
		c-11.46-12.42-19.9-27.87-23.92-45.47c-0.65-2.84-1.18-5.7-1.56-8.54c-1.46-10.41-1.23-20.74,0.49-30.7
		c3.46-20.04,12.98-38.52,27.03-53.05c7.06-7.31,15.28-13.62,24.43-18.61c8.1-4.42,16.93-7.81,26.37-9.97
		C389.75,308.44,398.82,307.64,407.69,307.98z"/>
	<path class="st0" d="M430.19,404.92l112.51,0c3.29-7.62,5.11-16.03,5.11-24.88c0-21.66-10.93-40.73-27.5-51.87
		c-11.74-7.89-22.71-16.88-32.31-27.29l-1.58-1.71l-0.37,0.4c-10.11,10.96-21.64,20.47-33.93,28.87
		c-17.03,11.64-27.98,31.71-27.03,54.31C425.41,390.59,427.21,398.07,430.19,404.92z"/>
	<path class="st5" d="M512.73,387.29l0-35.25h-26.12c0.11-1.26,0.2-2.53,0.25-3.8c0.6-14.37-2.54-28.22-8.84-40.43h-0.12
		c-8,7.57-16.67,14.4-25.78,20.63c-17.03,11.64-27.98,31.71-27.03,54.31c0.33,7.84,2.13,15.32,5.1,22.17l112.46,0
		c2.4-5.51,4.01-11.44,4.73-17.62L512.73,387.29L512.73,387.29z"/>
	<path class="st0" d="M468.37,344.79c0,8.85-1.83,17.26-5.11,24.88h-55.77V264.49l1.06,1.14c9.61,10.42,20.57,19.4,32.31,27.29
		c9.91,6.66,17.8,16.14,22.52,27.32h0.01c1.23,2.88,2.23,5.87,3.02,8.95C467.68,334.17,468.37,339.4,468.37,344.79z"/>
	<path class="st5" d="M468.37,344.79c0,8.85-1.83,17.26-5.11,24.88h-55.77v-17.62c9.16,0,17.99-1.41,26.29-4.02
		c4.13-1.31,8.14-2.91,11.97-4.79c1.14-0.56,2.26-1.13,3.37-1.74c6.26-3.4,12.06-7.54,17.29-12.3
		C467.68,334.17,468.37,339.4,468.37,344.79z"/>
	<polygon class="st0" points="607.44,360.85 607.44,528.29 407.49,528.29 407.49,369.66 495.19,369.66 495.19,404.92 572.37,404.92 
		572.37,360.85 	"/>
	<path class="st6" d="M460.11,459.03v69.26h-52.63V404.92l37,24.79C454.25,436.23,460.11,447.25,460.11,459.03z"/>
	<path class="st0" d="M572.23,360.86l35.36,0c1.03-2.4,1.61-5.04,1.61-7.82c0-6.74-3.36-12.68-8.48-16.19
		c-3.76-2.58-7.33-5.45-10.43-8.81l-0.38-0.42l-0.39,0.42c-3,3.26-6.39,6.15-10.09,8.57c-5.53,3.63-9.1,10.04-8.8,17.27
		C570.73,356.35,571.3,358.71,572.23,360.86z"/>
	<path class="st7" d="M460.11,459.03v35.24c0-11.78-5.86-22.79-15.63-29.33l-37-24.79v-35.24l37,24.79
		C454.25,436.23,460.11,447.25,460.11,459.03z"/>
	<rect x="547.81" y="404.92" class="st5" width="24.56" height="123.37"/>
	<rect x="495.19" y="404.92" class="st5" width="17.54" height="123.37"/>
	<rect x="407.49" y="528.29" class="st8" width="199.96" height="26.43"/>
	<rect x="464.49" y="389.5" class="st7" width="13.15" height="13.22"/>
	<rect x="438.18" y="389.5" class="st7" width="13.15" height="13.22"/>
	<rect x="541.23" y="422.54" class="st7" width="13.15" height="13.22"/>
	<rect x="514.92" y="422.54" class="st7" width="13.15" height="13.22"/>
</g>
</svg>
