<?xml version="1.0" encoding="UTF-8"?>
<svg id="Layer_2" data-name="Layer 2" xmlns="http://www.w3.org/2000/svg" xmlns:xlink="http://www.w3.org/1999/xlink" viewBox="0 0 958.91 1253.04">
  <defs>
    <style>
      .cls-1 {
        fill: none;
      }

      .cls-2 {
        stroke: #fff;
        stroke-width: .47px;
      }

      .cls-2, .cls-3, .cls-4 {
        fill: #fff;
      }

      .cls-2, .cls-4 {
        stroke-miterlimit: 10;
      }

      .cls-5 {
        fill: #0086ff;
      }

      .cls-6 {
        fill: #e5cd80;
      }

      .cls-7 {
        fill: #acabb1;
      }

      .cls-4 {
        stroke: #0086ff;
        stroke-width: 3.98px;
      }

      .cls-8 {
        opacity: .3;
      }

      .cls-9 {
        opacity: .39;
      }
    </style>
  </defs>
  <g id="Layer_1-2" data-name="Layer 1">
    <g>
      <g>
        <path class="cls-5" d="M490.01,.39V857.73h-142.43c-42.51,0-82.71-19.35-109.22-52.6l-164.61-206.41c-26.51-33.25-36.43-76.73-26.96-118.18L105.53,223.14c9.47-41.45,37.27-76.33,75.59-94.79L418.97,13.82C441.34,3.05,465.86-1.42,490.01,.39Z"/>
        <path class="cls-3" d="M884.9,598.95l-164.61,206.51c-26.51,33.26-66.71,52.62-109.22,52.62h-121.58V.36c17.21,1.26,34.26,5.75,50.19,13.43l237.86,114.59c38.32,18.47,66.14,53.36,75.59,94.83l58.74,257.51c9.46,41.47-.45,84.97-26.96,118.23Z"/>
        <path class="cls-1" d="M885.16,598.68l-164.61,206.41c-26.51,33.25-66.71,52.6-109.22,52.6h-121.06v.39h-142.43c-42.51,0-82.71-19.35-109.22-52.6l-164.61-206.41c-26.51-33.25-36.43-76.73-26.96-118.18L105.79,223.5c9.47-41.45,37.27-76.33,75.59-94.79L419.23,14.17C441.43,3.49,465.77-1,489.75,.72V.36c17.21,1.26,34.26,5.74,50.19,13.42l237.86,114.54c38.32,18.46,66.14,53.34,75.59,94.79l58.74,257.39c9.47,41.45-.45,84.93-26.96,118.18Z"/>
        <path class="cls-3" d="M479.59,50.06c-12.49,1.22-24.63,4.1-35.95,8.69-11.51,4.56-21.87,11.39-32.68,17.32-31.36,17.67-66.66,37.29-98.57,54.47-29.18,15.77-59.09,31.6-88.49,47.04-5.43,2.98-10.88,6.35-15.76,10.16-18.93,14.73-32.92,35.98-38.34,59.39-15.95,75.92-32.54,152.64-50.07,228.16-5.74,22.81-3.62,47.47,6.24,68.86,3.22,7.06,7.4,13.88,12.08,20.06,39.33,50.84,80.68,105.15,118.86,156.83,0,0,22.16,30.03,22.16,30.03,0,0,2.53,3.31,2.53,3.31,2.62,3.26,5.46,6.32,8.39,9.31,3.11,3.08,6.13,5.61,9.45,8.34,0,0,3.37,2.53,3.37,2.53,0,0,1.69,1.27,1.69,1.27,13.43,9.39,28.95,15.88,45.08,18.86,4.95,.99,10.19,1.41,15.23,1.79,38.3,2.32,76.54,4.81,114.78,8.39-38.25,3.58-76.48,6.06-114.78,8.39-19.34,1.13-38.98-1.85-56.96-9.2-2.58-.89-6.81-3.01-9.38-4.15,0,0-4.55-2.4-4.55-2.4-4.31-2.26-9.14-5.32-13.14-8.15-7.07-4.98-13.61-10.7-19.62-16.92-3.19-3.49-6.83-7.53-9.82-11.04-48.33-55.92-97.94-115.01-144.84-172.19-9.06-11.33-16.68-24.06-21.9-37.6-7.39-18.66-10.63-38.96-9.7-59,.16-1.89,.47-6.39,.63-8.2,.21-1.65,.87-6.42,1.11-8.15,1.03-5.65,2.87-13.83,4.18-19.49,16.85-73.71,34.17-148.75,53.08-221.99,8.19-26.49,24.25-50.68,46.03-67.91,9.24-7.51,19.65-13.71,30.49-18.62,30.25-13.23,61.04-26.76,91.42-39.63,33.43-13.93,70.48-29.85,104.04-43.1,5.82-2.32,11.61-4.69,17.44-6.97,17.67-7.22,37.44-10.35,56.26-8.53h0Z"/>
        <g>
          <path class="cls-4" d="M492.86,287.79v55.56l-68.83,14.15-11.82,2.43c-1.18,.25-1.87-1.3-.88-2,1.67-1.18,3.47-2.64,5.19-4.43,2.24-2.32,4.36-5.17,5.98-8.67,1.58-3.45,5.04-10.9,1.85-17.55-.34-.69-.71-1.35-1.11-1.94-2.56-3.76-6.33-5.57-8.15-6.43-5.61-2.64-11.03-2.36-14.37-1.79-.99,.19-1.68-.98-1.06-1.75,1.62-2.02,4.45-4.65,8.49-4.92,1.62-.12,3.05,.19,4.16,.57,.59,.2,1.23-.12,1.41-.71,.51-1.65,1.62-4.24,4.16-6.3,4.33-3.52,9.62-2.85,12.03-2.27,.67,.15,1.31-.34,1.35-1.03,.76-19.94,.39-42.64-2.11-67.5-.25-2.46-.5-4.9-.79-7.33-2.05-17.82-4.93-34.21-8.17-48.98-.07-.27-.22-.51-.45-.66-1.18-.84-2.36-1.68-3.54-2.51-.24-.19-.4-.44-.44-.72l-3.12-19.25-.07-.4c-.05-.34,.05-.67,.29-.93l2.21-2.31c.27-.25,.37-.62,.29-.98l-1.92-9.4c-.07-.27-.2-.49-.42-.66l-2.05-1.55c-.22-.17-.37-.42-.42-.69l-1.9-10.81c-.07-.34,.03-.69,.27-.93l3.3-3.62c.22-.24,.32-.56,.29-.86l-2.41-21.69c-.03-.3,.07-.62,.29-.86l2.83-3.08c.05-.07,.1-.12,.13-.19l3.18-.66c.05,.05,.12,.08,.19,.12l3.82,1.72c.29,.13,.51,.39,.59,.69l6.35,20.87c.1,.29,.32,.54,.61,.67l4.46,2.02c.3,.13,.54,.42,.62,.76l2.51,10.68c.05,.27,.02,.56-.12,.81l-1.28,2.22c-.13,.24-.17,.51-.12,.77l1.68,8.15,.25,1.25c.07,.35,.3,.66,.64,.79l2.95,1.23c.3,.13,.54,.42,.64,.76l4.82,19.3c.08,.29,.03,.59-.12,.84-.76,1.23-1.52,2.48-2.26,3.71-.15,.24-.2,.51-.15,.77,2.56,13.32,5.89,27.69,10.26,42.91,1.16,4.06,2.39,8.19,3.72,12.36,7.51,23.83,16.13,44.83,24.69,62.85,.29,.62,1.08,.83,1.63,.42,1.73-1.3,5.47-3.5,9.95-3.05Z"/>
          <path class="cls-4" d="M375.3,448.47c.13-2.05,.1-4.36-.23-6.83-.41-3.19-1.33-6.63-3.05-10.07-1.7-3.4-5.38-10.73-12.56-12.4-5.49-1.27-10.24,1-12.33,2.02-5.56,2.73-8.72,7.15-10.35,10.12-.48,.88-1.81,.7-2.03-.28-.57-2.52-.85-6.37,1.44-9.69,.93-1.34,2.05-2.27,3.05-2.9,.52-.33,.68-1.03,.34-1.54-.98-1.42-2.31-3.92-2.34-7.18-.04-5.57,3.78-9.29,5.73-10.82,.54-.42,.55-1.24,.04-1.69-15.11-13.02-33.08-26.91-54.07-40.46-15.12-9.77-29.7-18.02-43.35-24.99-2.11-1.08-4.19-2.12-6.25-3.13-.25-.12-.53-.14-.79-.06-1.39,.4-2.79,.8-4.18,1.19-.29,.08-.58,.04-.84-.1l-17.34-9.77c-.29-.17-.5-.47-.54-.82l-.42-3.15c-.04-.37-.27-.68-.59-.84l-6.39-3.25-2.16-1.1c-.24-.12-.51-.15-.77-.08l-2.5,.63c-.26,.07-.55,.03-.8-.1l-9.64-5.25c-.3-.16-.51-.45-.56-.79l-.76-4.84c-.05-.32-.24-.59-.5-.76l-18.45-11.64c-.26-.17-.45-.45-.49-.77l-.65-4.14c0-.07-.03-.15-.05-.21l1.47-2.9c.07-.01,.14-.04,.2-.07l3.73-1.92c.29-.15,.62-.16,.91-.04l20.27,8.06c.29,.11,.62,.1,.91-.04l4.36-2.23c.3-.16,.67-.17,.97-.02l7.36,3.49,2.56,1.22c.24,.12,.45,.33,.55,.59l.96,2.39c.1,.25,.29,.45,.52,.57l8.55,4.35c.32,.16,.7,.16,1.02-.01l2.81-1.52c.3-.16,.67-.18,.98-.04l18.1,8.27c.27,.12,.48,.34,.58,.62,.5,1.36,.99,2.72,1.49,4.08,.09,.26,.27,.47,.52,.6,2.44,1.28,4.93,2.57,7.47,3.85,13.34,6.72,28.15,13.43,44.44,19.71,23.31,9,45.11,15.36,64.53,19.92,.67,.16,1.31-.33,1.34-1.03,.09-2.47,.85-7.75,5.38-11,2.65-1.88,5.45-2.29,7.17-2.33,.62-.01,1.09-.56,1.05-1.18-.07-1.18,.02-2.63,.56-4.17,1.33-3.81,4.6-5.85,6.99-6.87,.92-.39,1.85,.57,1.42,1.48-1.44,3.06-3.15,8.22-2.09,14.32,.4,2.3,1.37,7.47,5.62,11.16,5.57,4.83,13.66,3.49,17.41,2.86,1.95-.33,3.78-.82,5.48-1.45,4.16-1.5,7.54-3.72,10.12-5.85,.93-.76,2.25,.31,1.7,1.38l-4.32,8.48-41.13,80.78-5.47,10.75c-.55,1.07-2.19,.64-2.11-.56Z"/>
          <path class="cls-4" d="M384.67,553.92c-2.33-1.12-5.51-3.31-6.67-7.18-.47-1.56-.5-3.02-.37-4.19,.07-.62-.37-1.18-.99-1.22-1.72-.12-4.5-.64-7.06-2.65-4.39-3.44-4.9-8.75-4.89-11.23,0-.69-.62-1.21-1.29-1.09-19.6,3.69-41.66,9.07-65.36,17.01-19.71,6.61-37.38,13.92-52.92,21.22-.25,.12-.44,.32-.54,.57-.56,1.34-1.11,2.67-1.67,4.01-.11,.27-.33,.48-.61,.59l-18.45,7.46c-.31,.13-.68,.1-.98-.08l-2.73-1.64c-.31-.19-.69-.21-1.02-.06l-7.33,3.32-1.41,.64c-.25,.11-.44,.3-.55,.55l-1.06,2.35c-.11,.25-.32,.45-.58,.56l-10.12,4.26c-.32,.13-.68,.11-.97-.06l-3.53-2.02-.73-.41c-.28-.16-.61-.19-.91-.08l-20.6,7.16c-.3,.1-.63,.07-.91-.09l-3.64-2.08c-.06-.03-.14-.06-.2-.09l-1.34-2.96c.03-.06,.05-.13,.07-.21l.83-4.11c.06-.32,.26-.58,.53-.74l18.95-10.81c.27-.16,.47-.42,.53-.74l.36-1.78,.62-3.02c.06-.34,.28-.62,.59-.77l9.87-4.81c.25-.12,.54-.15,.8-.06l2.47,.75c.26,.08,.53,.05,.77-.06l8.74-3.96c.33-.15,.57-.45,.63-.8l.56-3.14c.06-.34,.28-.64,.58-.79l3.21-1.63,14.54-7.36c.27-.14,.57-.16,.85-.07,1.37,.46,2.75,.92,4.12,1.39,.26,.09,.54,.08,.79-.03,15.73-6.89,32.86-15.38,50.8-25.87,21.58-12.61,40.15-25.67,55.83-38,.54-.43,.56-1.24,.04-1.69-1.88-1.61-5.54-5.5-5.24-11.07,.17-3.25,1.61-5.69,2.65-7.07,.37-.5,.25-1.2-.26-1.55-.96-.68-2.04-1.66-2.91-3.04-2.15-3.42-1.7-7.25-1.01-9.75,.27-.96,1.6-1.08,2.04-.18,1.49,3.03,4.45,7.59,9.89,10.57,2.05,1.12,6.68,3.59,12.22,2.57,7.25-1.35,11.25-8.5,13.1-11.83,.97-1.73,1.72-3.47,2.29-5.18,1.42-4.19,1.8-8.22,1.74-11.56-.02-1.2,1.65-1.56,2.14-.47l3.93,8.66,37.48,82.55,4.99,10.98c.5,1.1-.86,2.11-1.76,1.3-1.52-1.37-3.34-2.8-5.47-4.08-2.75-1.66-6.02-3.1-9.79-3.9-3.71-.79-11.73-2.49-17.52,2.08-4.42,3.5-5.6,8.62-6.12,10.89-1.33,6.05,.15,11.28,1.45,14.4,.39,.93-.58,1.85-1.49,1.41Z"/>
          <path class="cls-4" d="M492.86,539.14v53.91c-.71,.34-1.48,.62-2.34,.83-5.44,1.28-9.9-1.63-11.82-3.2-.54-.42-1.35-.27-1.67,.34-9.35,17.63-18.91,38.23-27.47,61.69-7.14,19.52-12.45,37.89-16.44,54.6-.07,.27-.02,.54,.1,.77,.71,1.28,1.4,2.54,2.11,3.81,.13,.27,.17,.56,.08,.84l-5.69,19.08c-.1,.32-.34,.59-.67,.71l-2.98,1.11c-.35,.12-.61,.42-.69,.77l-2.34,9.3c-.08,.25-.05,.52,.08,.76l1.16,2.29c.13,.25,.15,.54,.08,.81l-2.98,10.58c-.1,.32-.34,.59-.66,.71l-4.55,1.82c-.3,.12-.52,.35-.62,.66l-7.28,20.56c-.1,.3-.34,.54-.64,.66l-3.89,1.55c-.07,.03-.13,.07-.19,.1l-3.17-.79c-.02-.07-.07-.13-.12-.19l-2.68-3.22c-.22-.24-.3-.56-.25-.88l3.37-21.56c.05-.3-.03-.62-.24-.88l-3.15-3.76c-.22-.25-.3-.61-.22-.94l2.39-10.71c.05-.27,.22-.52,.45-.66l2.12-1.47c.22-.15,.37-.39,.44-.64l2.34-9.3c.1-.35,0-.72-.24-.99l-2.11-2.41c-.22-.25-.32-.61-.25-.94l4.06-19.49c.05-.29,.24-.54,.47-.71,1.21-.77,2.44-1.57,3.65-2.34,.24-.15,.39-.39,.47-.64,4.43-16.61,8.47-35.28,11.47-55.85,3.6-24.72,4.99-47.39,5.12-67.35,.02-.67-.61-1.2-1.3-1.08-2.43,.47-7.75,.89-11.91-2.81-2.44-2.16-3.45-4.8-3.87-6.47-.15-.61-.79-.94-1.38-.77-1.13,.34-2.56,.57-4.19,.39-4.01-.45-6.72-3.2-8.24-5.29-.59-.83,.13-1.94,1.11-1.72,3.32,.72,8.72,1.26,14.43-1.13,1.74-.72,5.2-2.21,7.88-5.37,.64-.76,1.23-1.62,1.75-2.58,3.47-6.52,.37-14.1-1.06-17.62-.76-1.84-1.65-3.5-2.61-5.02-2.41-3.72-5.32-6.53-7.97-8.57-.94-.74-.2-2.26,.98-1.97l9.23,2.34,72.49,18.31Z"/>
        </g>
        <path class="cls-2" d="M489.49,309.05v262.7c-26.04,1.31-51.22-5.09-72.81-17.5-11.62-6.67-22.21-15.09-31.34-24.99-14.94-16.2-25.95-36.34-31.19-59.3-.84-3.71-1.53-7.43-2.04-11.13-1.9-13.57-1.6-27.05,.64-40.03,4.51-26.14,16.93-50.24,35.25-69.19,9.21-9.53,19.92-17.77,31.86-24.27,10.56-5.76,22.08-10.19,34.39-13,11.84-2.69,23.66-3.74,35.23-3.28Z"/>
        <path class="cls-5" d="M518.83,435.45h146.72c4.29-9.94,6.67-20.91,6.67-32.45,0-28.25-14.25-53.12-35.86-67.64-15.31-10.29-29.62-22.01-42.14-35.58l-2.06-2.23-.48,.52c-13.19,14.3-28.21,26.69-44.25,37.66-22.21,15.18-36.49,41.35-35.25,70.82,.43,10.23,2.77,19.98,6.66,28.91Z"/>
        <path class="cls-9" d="M626.46,412.47v-45.97s-34.06,0-34.06,0c.15-1.65,.26-3.3,.33-4.96,.79-18.73-3.32-36.8-11.53-52.72h-.16c-10.43,9.88-21.74,18.78-33.62,26.9-22.21,15.18-36.49,41.35-35.25,70.82,.43,10.23,2.77,19.98,6.66,28.91h146.65c3.13-7.19,5.23-14.91,6.17-22.98h-45.18s0,0,0,0Z"/>
        <path class="cls-5" d="M568.61,357.04c0,11.54-2.39,22.51-6.67,32.44h-72.72V252.32l1.38,1.49c12.53,13.59,26.83,25.3,42.14,35.59,12.92,8.68,23.21,21.05,29.37,35.62h.02c1.6,3.76,2.91,7.65,3.94,11.68,1.65,6.5,2.54,13.32,2.54,20.34Z"/>
        <path class="cls-9" d="M568.61,357.04c0,11.54-2.39,22.51-6.67,32.44h-72.72v-22.98c11.94,0,23.46-1.84,34.29-5.25,5.39-1.71,10.61-3.79,15.61-6.24,1.48-.73,2.95-1.47,4.4-2.27,8.17-4.43,15.73-9.83,22.55-16.04,1.65,6.5,2.54,13.32,2.54,20.34Z"/>
        <polygon class="cls-5" points="749.98 377.99 749.98 596.34 489.22 596.34 489.22 389.48 603.59 389.48 603.59 435.46 704.24 435.46 704.24 377.99 749.98 377.99"/>
        <path class="cls-7" d="M557.85,506.02v90.32h-68.63v-160.88l48.25,32.32c12.73,8.51,20.38,22.88,20.38,38.24Z"/>
        <path class="cls-5" d="M704.06,378h46.11c1.35-3.12,2.1-6.57,2.1-10.2,0-8.79-4.39-16.53-11.06-21.11-4.91-3.37-9.56-7.1-13.6-11.48l-.5-.54-.51,.55c-3.92,4.25-8.33,8.01-13.15,11.18-7.21,4.73-11.87,13.09-11.48,22.52,.13,3.21,.87,6.28,2.09,9.08Z"/>
        <path class="cls-8" d="M557.85,506.02v45.96c0-15.37-7.65-29.72-20.38-38.24l-48.25-32.32v-45.96l48.25,32.32c12.73,8.51,20.38,22.88,20.38,38.24Z"/>
        <rect class="cls-9" x="672.21" y="435.45" width="32.02" height="160.88"/>
        <rect class="cls-9" x="603.59" y="435.45" width="22.87" height="160.88"/>
        <rect class="cls-6" x="489.22" y="596.34" width="260.76" height="34.47"/>
        <rect class="cls-8" x="563.56" y="415.34" width="17.15" height="17.24"/>
        <rect class="cls-8" x="529.25" y="415.34" width="17.15" height="17.24"/>
        <rect class="cls-8" x="663.63" y="458.44" width="17.15" height="17.24"/>
        <rect class="cls-8" x="629.32" y="458.44" width="17.15" height="17.24"/>
      </g>
      <image width="1741" height="560" transform="translate(0 944.6) scale(.55)" xlink:href="../../kcd-logo-1221823a 2/Color/kcd-logo-color.png"/>
    </g>
  </g>
</svg>